<?xml version="1.0" encoding="UTF-8" standalone="no"?>
<!-- Created with Inkscape (http://www.inkscape.org/) -->

<svg
   xmlns:dc="http://purl.org/dc/elements/1.1/"
   xmlns:cc="http://creativecommons.org/ns#"
   xmlns:rdf="http://www.w3.org/1999/02/22-rdf-syntax-ns#"
   xmlns:svg="http://www.w3.org/2000/svg"
   xmlns="http://www.w3.org/2000/svg"
   xmlns:sodipodi="http://sodipodi.sourceforge.net/DTD/sodipodi-0.dtd"
   xmlns:inkscape="http://www.inkscape.org/namespaces/inkscape"
   width="210mm"
   height="297mm"
   viewBox="0 0 744.09448819 1052.3622047"
   id="svg2"
   version="1.1"
   inkscape:version="0.91 r13725"
   sodipodi:docname="compsoc-logo-min-src.svg">
  <defs
     id="defs4" />
  <sodipodi:namedview
     id="base"
     pagecolor="#ffffff"
     bordercolor="#666666"
     borderopacity="1.0"
     inkscape:pageopacity="0.0"
     inkscape:pageshadow="2"
     inkscape:zoom="2.9364261"
     inkscape:cx="186.39392"
     inkscape:cy="998.81591"
     inkscape:document-units="px"
     inkscape:current-layer="g4368"
     showgrid="false"
     inkscape:window-width="1918"
     inkscape:window-height="1156"
     inkscape:window-x="0"
     inkscape:window-y="0"
     inkscape:window-maximized="0"
     inkscape:snap-text-baseline="false" />
  <metadata
     id="metadata7">
    <rdf:RDF>
      <cc:Work
         rdf:about="">
        <dc:format>image/svg+xml</dc:format>
        <dc:type
           rdf:resource="http://purl.org/dc/dcmitype/StillImage" />
        <dc:title></dc:title>
      </cc:Work>
    </rdf:RDF>
  </metadata>
  <g
     inkscape:groupmode="layer"
     id="layer3"
     inkscape:label="guide"
     style="display:inline" />
  <g
     inkscape:groupmode="layer"
     id="layer2"
     inkscape:label="C"
     style="display:inline" />
  <g
     inkscape:label="S"
     inkscape:groupmode="layer"
     id="layer1"
     style="display:inline">
    <g
       id="g4368"
       transform="matrix(1.1209633,0,0,1.1111111,0.46743508,0.09602479)"
       inkscape:export-xdpi="918.15222"
       inkscape:export-ydpi="918.15222">
      <g
         id="g4376"
         transform="translate(94.09112,-0.21672471)"
         inkscape:export-xdpi="918.15222"
         inkscape:export-ydpi="918.15222">
        <g
           id="g4410"
           transform="matrix(1.0070794,0,0,0.9863428,-8.2961257e-4,1.2483541)">
          <path
             inkscape:connector-curvature="0"
             style="font-style:normal;font-variant:normal;font-weight:normal;font-stretch:normal;font-size:medium;line-height:125%;font-family:Monoton;-inkscape-font-specification:'Monoton, Normal';text-align:start;letter-spacing:0px;word-spacing:0px;writing-mode:lr-tb;text-anchor:start;display:inline;fill:#c91740;fill-opacity:1;stroke:none;stroke-width:1px;stroke-linecap:butt;stroke-linejoin:miter;stroke-opacity:1"
             d="m 31.761719,0.16015625 c -4.289574,0 -8.392112,0.80375705 -12.306641,2.41210935 C 15.563988,4.1582796 12.20151,6.3029339 9.3652344,9.0058594 6.5523988,11.686447 4.3009828,14.892564 2.6132812,18.623047 0.94902025,22.331192 0.1171875,26.22851 0.1171875,30.316406 c 0,4.087896 0.83183275,7.996079 2.4960937,11.726563 1.6877014,3.708145 3.9391176,6.914261 6.7519532,9.617187 2.8362756,2.680587 6.1987536,4.814377 10.0898436,6.400391 3.914529,1.608353 8.017067,2.412109 12.306641,2.412109 4.583287,0 8.895306,-0.874974 12.939453,-2.615234 -0.438802,-0.691003 -0.828065,-1.416847 -1.183594,-2.167969 -3.683504,1.575305 -7.600062,2.371094 -11.755859,2.371094 -3.93797,0 -7.712461,-0.725749 -11.322266,-2.177735 -3.586365,-1.474322 -6.679377,-3.452097 -9.28125,-5.93164 C 8.5563298,47.471629 6.4806532,44.523217 4.9335938,41.105469 3.4099743,37.665382 2.6484375,34.069228 2.6484375,30.316406 c 0,-3.752822 0.7615368,-7.338111 2.2851563,-10.755859 1.5470594,-3.440087 3.622736,-6.399364 6.2246092,-8.878906 2.601873,-2.4795443 5.694885,-4.4464532 9.28125,-5.8984379 3.609805,-1.4743229 7.384296,-2.2109375 11.322266,-2.2109375 4.899022,0 9.458481,1.083192 13.677734,3.25 4.164183,2.1267109 7.565573,5.0114894 10.216797,8.6445314 l 2.128906,-1.285156 C 54.897375,9.202908 51.194689,6.0429542 46.669922,3.7109375 42.075624,1.3430855 37.106107,0.16015625 31.761719,0.16015625 Z m 0,4.82421875 c -4.805261,0 -9.247561,1.1394695 -13.326172,3.4179688 -4.078612,2.2561612 -7.312215,5.3279922 -9.7031251,9.2148442 -2.36747,3.886851 -3.5527344,8.119882 -3.5527344,12.699218 0,4.579336 1.1852644,8.812368 3.5527344,12.699219 2.3909101,3.886852 5.6245131,6.969548 9.7031251,9.248047 4.078611,2.25616 8.520911,3.384766 13.326172,3.384766 3.855629,-10e-7 7.475078,-0.733503 10.861328,-2.191407 -0.263113,-0.7757 -0.482922,-1.569132 -0.65625,-2.380859 -3.169435,1.437095 -6.570212,2.158203 -10.205078,2.158203 -3.258202,0 -6.376598,-0.60233 -9.353516,-1.808594 -2.976917,-1.206264 -5.542711,-2.826595 -7.699219,-4.859375 -2.133066,-2.055116 -3.83188,-4.500936 -5.0976559,-7.33789 -1.2657762,-2.836955 -1.8984375,-5.807096 -1.8984375,-8.91211 0,-3.105014 0.6326613,-6.077108 1.8984375,-8.914062 1.2657759,-2.836956 2.9645899,-5.269956 5.0976559,-7.302735 2.156508,-2.055116 4.722302,-3.686313 7.699219,-4.8925778 2.976918,-1.2062641 6.095314,-1.8105468 9.353516,-1.8105468 4.055171,0 7.829661,0.9054473 11.322265,2.7148436 3.371851,1.71377 6.132302,4.030242 8.296875,6.935547 l 2.126953,-1.283203 C 51.106777,12.512303 48.047948,9.9191425 44.314453,8 40.446804,5.9895596 36.262256,4.984375 31.761719,4.984375 Z m 0,4.8261719 c -3.89109,0 -7.489841,0.9143591 -10.794922,2.7460941 -3.305082,1.831734 -5.917739,4.322966 -7.839844,7.472656 -1.922104,3.14969 -2.882812,6.578963 -2.882812,10.287109 0,3.708146 0.960708,7.13742 2.882812,10.28711 1.922105,3.14969 4.534762,5.638968 7.839844,7.470703 3.305081,1.831734 6.903832,2.748047 10.794922,2.748047 3.510022,0 6.777918,-0.756707 9.80664,-2.257813 -0.07594,-0.780022 -0.123046,-1.572319 -0.123047,-2.382812 0,-0.108241 0.01022,-0.212603 0.01172,-0.320313 -0.240696,0.136882 -0.479457,0.275566 -0.728515,0.404297 -2.765956,1.429647 -5.755477,2.144531 -8.966797,2.144531 -3.445724,0 -6.6227,-0.803757 -9.529297,-2.412109 -2.906597,-1.630691 -5.21464,-3.831623 -6.925781,-6.601563 -1.687702,-2.76994 -2.53125,-5.796359 -2.53125,-9.080078 0,-3.28372 0.843548,-6.310139 2.53125,-9.080078 1.711141,-2.769941 4.019184,-4.960007 6.925781,-6.568359 2.906597,-1.630691 6.083573,-2.445313 9.529297,-2.445313 3.21132,0 6.189125,0.714885 8.93164,2.144532 2.585231,1.315355 4.714298,3.074211 6.398438,5.267578 l 2.128906,-1.285157 C 47.298504,15.78969 44.859229,13.743733 41.888672,12.222656 38.771113,10.614304 35.394965,9.8105469 31.761719,9.8105469 Z m 0,4.8242191 c -2.226828,0 -4.359132,0.413719 -6.398438,1.240234 -2.015866,0.826515 -3.763496,1.942301 -5.240234,3.349609 -1.476739,1.407309 -2.648334,3.083919 -3.515625,5.027344 -0.867291,1.921087 -1.300781,3.942321 -1.300781,6.064453 0,2.122132 0.43349,4.154232 1.300781,6.097656 0.867291,1.921088 2.038886,3.58488 3.515625,4.992188 1.476738,1.407308 3.224368,2.525048 5.240234,3.351562 2.039306,0.826516 4.17161,1.240235 6.398438,1.240235 2.765955,0 5.343464,-0.615147 7.734375,-1.84375 0.785424,-0.403602 1.51773,-0.859806 2.207031,-1.357422 0.169647,-1.080871 0.423101,-2.132376 0.759766,-3.154297 0.184762,-0.560834 0.3997,-1.106601 0.634765,-1.642578 -1.24017,1.666749 -2.821003,3.010626 -4.761718,4.009766 -2.015867,1.049896 -4.206749,1.576172 -6.574219,1.576172 -3.844209,-10e-7 -7.126629,-1.295485 -9.845703,-3.886719 -2.719074,-2.591235 -4.078125,-5.719344 -4.078125,-9.382813 0,-3.663469 1.359051,-6.791578 4.078125,-9.382812 2.719074,-2.591235 6.001494,-3.886719 9.845703,-3.886719 2.36747,0 4.558352,0.526275 6.574219,1.576172 1.792678,0.903289 3.287236,2.099879 4.482421,3.589844 l 2.103516,-1.269532 C 43.488,19.101823 41.693292,17.622714 39.53125,16.511719 37.140339,15.260778 34.551114,14.634766 31.761719,14.634766 Z"
             id="path4378" />
          <path
             inkscape:connector-curvature="0"
             style="font-style:normal;font-variant:normal;font-weight:normal;font-stretch:normal;font-size:medium;line-height:125%;font-family:Monoton;-inkscape-font-specification:'Monoton, Normal';text-align:start;letter-spacing:0px;word-spacing:0px;writing-mode:lr-tb;text-anchor:start;fill:#c91740;fill-opacity:1;stroke:none;stroke-width:1px;stroke-linecap:butt;stroke-linejoin:miter;stroke-opacity:1"
             d="m 65.324071,26.732496 c -3.091541,0 -5.970512,0.359543 -8.634766,1.078125 -2.639119,0.69463 -4.925974,1.67777 -6.861328,2.947266 -1.91022,1.245542 -3.557057,2.730479 -4.939453,4.455078 -1.357262,1.724598 -2.374104,3.615845 -3.052734,5.675781 -0.678631,2.059937 -1.017579,4.239599 -1.017579,6.539063 1e-6,2.874329 0.476532,5.557742 1.431641,8.048828 0.955111,2.491086 2.324828,4.681951 4.109375,6.574219 1.809682,1.892267 4.110464,3.377204 6.900391,4.455078 2.81506,1.077874 5.955271,1.617187 9.423828,1.617187 l 4.072265,0 c 1.105919,0 1.859567,0.239695 2.261719,0.71875 0.427286,0.455102 0.642578,1.078699 0.642578,1.869141 0,0.814393 -0.378778,1.449195 -1.132812,1.904297 -0.7289,0.455102 -2.172419,0.68164 -4.333985,0.68164 -0.230766,0 -0.43881,-0.0057 -0.662109,-0.0078 l -3.855469,2.357422 c 1.37994,0.151076 2.871328,0.238281 4.517578,0.238281 5.403914,0 8.105469,-1.724633 8.105469,-5.173828 0,-1.532976 -0.428631,-2.778218 -1.283203,-3.736328 -0.854572,-0.95811 -2.248239,-1.4375 -4.183594,-1.4375 l -4.148437,0 c -4.021515,0 -7.502626,-0.814572 -10.443359,-2.44336 -2.940734,-1.652739 -5.125929,-3.832401 -6.558594,-6.539062 -1.432665,-2.70666 -2.150391,-5.749616 -2.150391,-9.126953 0,-2.51504 0.478484,-4.861316 1.433594,-7.041016 0.980244,-2.1797 2.361937,-4.097261 4.146484,-5.75 1.809683,-1.65274 4.096537,-2.944749 6.861328,-3.878906 2.789927,-0.95811 5.90814,-1.4375 9.351563,-1.4375 4.398532,0 8.51966,0.610441 12.365234,1.832031 3.316564,1.032887 6.152639,2.441577 8.515625,4.222656 l 2.390625,-1.419922 c -2.65548,-2.15242 -5.873695,-3.85515 -9.662109,-5.101562 -4.222591,-1.413212 -8.758422,-2.121094 -13.609375,-2.121094 z m 0,5.173828 c -6.032274,0 -10.719615,1.473734 -14.0625,4.419922 -3.342885,2.922235 -5.015625,6.622398 -5.015625,11.101563 0,4.479163 1.445473,8.192483 4.335937,11.138671 2.915599,2.922236 6.948996,4.382813 12.101563,4.382813 l 4.109375,0 c 2.940733,0 5.066054,0.719085 6.373047,2.15625 1.306992,1.413212 1.960937,3.282051 1.960937,5.605469 0,2.323416 -0.881211,4.203459 -2.640625,5.640625 -1.734278,1.413212 -4.497663,2.11914 -8.292969,2.11914 -2.967609,0 -5.578723,-0.265584 -7.84375,-0.789062 l -2.908203,1.777344 c 0.582489,0.199619 1.181219,0.390037 1.816407,0.55664 2.764792,0.69463 5.743468,1.042969 8.935546,1.042969 4.549341,0 7.954695,-0.95878 10.216797,-2.875 2.287238,-1.91622 3.429688,-4.406705 3.429688,-7.472656 0,-3.018047 -0.917137,-5.497328 -2.751953,-7.4375 -1.834818,-1.940173 -4.586227,-2.910156 -8.25586,-2.910156 l -4.148437,0 c -4.423667,-1e-6 -7.815094,-1.209679 -10.177735,-3.628907 -2.362639,-2.44318 -3.544921,-5.546059 -3.544921,-9.30664 0,-3.784535 1.395618,-6.88546 4.185547,-9.304688 2.815061,-2.419227 6.87436,-3.628906 12.177734,-3.628906 3.594229,0 6.949731,0.443827 10.066406,1.330078 2.241684,0.637441 4.205092,1.46356 5.900391,2.472656 l 2.474609,-1.470703 c -2.031225,-1.383417 -4.428697,-2.499769 -7.207031,-3.33789 -3.468557,-1.053923 -7.21286,-1.582032 -11.234375,-1.582032 z m 0,5.173828 c -4.54934,0 -7.96862,0.958781 -10.25586,2.875 -2.262101,1.91622 -3.392578,4.406704 -3.392578,7.472657 0,3.065951 0.917137,5.558389 2.751954,7.474609 1.834814,1.91622 4.586226,2.873047 8.255859,2.873047 l 4.261719,0 c 4.373398,0 7.7289,1.222837 10.066406,3.666015 2.36264,2.443181 3.542969,5.532902 3.542969,9.269532 0,3.784534 -1.407596,6.88546 -4.222657,9.304687 -2.789926,2.419229 -6.835296,3.628907 -12.138672,3.628907 -3.594228,-10e-7 -6.96366,-0.441874 -10.105468,-1.328126 -1.203559,-0.342241 -2.324424,-0.740853 -3.369141,-1.191406 l -2.601562,1.591797 c 1.457219,0.749299 3.045081,1.403373 4.802734,1.933594 3.493692,1.053921 7.251922,1.582031 11.273437,1.582031 6.032275,0 10.719617,-1.46253 14.0625,-4.384766 3.342885,-2.946188 5.013672,-6.657555 5.013672,-11.136718 0,-4.407306 -1.445473,-8.096266 -4.335937,-11.066406 -2.86533,-2.970142 -6.848874,-4.455079 -11.951172,-4.455079 l -4.298828,0 c -2.940733,0 -5.064101,-0.707881 -6.371094,-2.121093 -1.281858,-1.413212 -1.921875,-3.293256 -1.921875,-5.640625 0,-2.323418 0.867285,-4.190304 2.601563,-5.603516 1.759414,-1.437165 4.536726,-2.15625 8.332031,-2.15625 4.352587,0 7.950522,0.567152 10.802734,1.695313 l 2.603516,-1.544922 C 77.401896,39.150998 75.91342,38.587497 74.220555,38.158277 71.480897,37.439695 68.516148,37.080152 65.324071,37.080152 Z m 0,5.173828 c -5.403912,0 -8.107422,1.724632 -8.107422,5.173829 0,1.556928 0.428631,2.815327 1.283203,3.773437 0.854572,0.934157 2.24824,1.400391 4.183594,1.400391 l 4.5625,0 c 3.920977,0 7.314358,0.838932 10.179687,2.515625 2.890465,1.676692 5.039735,3.867559 6.447266,6.574218 1.407527,2.682709 2.111328,5.6901 2.111328,9.019532 0,2.515038 -0.490462,4.861315 -1.470703,7.041015 -0.955111,2.1797 -2.336802,4.09726 -4.146484,5.75 -1.784548,1.65274 -4.073356,2.957906 -6.863282,3.916016 -2.764792,0.934157 -5.867122,1.400391 -9.310547,1.400391 -4.398532,0 -8.533588,-0.599238 -12.404296,-1.796875 -2.310742,-0.734034 -4.383255,-1.651167 -6.230469,-2.740235 l -2.457031,1.501953 c 2.174962,1.412342 4.651159,2.583303 7.443359,3.501953 4.247725,1.413213 8.797484,2.121094 13.648437,2.121094 3.091541,0 5.956584,-0.359542 8.595704,-1.078125 2.664254,-0.694629 4.951108,-1.664613 6.861328,-2.910156 1.935354,-1.269496 3.582192,-2.76759 4.939453,-4.492187 1.382399,-1.724599 2.41317,-3.615845 3.091797,-5.675782 0.678633,-2.059936 1.017578,-4.239599 1.017578,-6.539062 0,-2.826425 -0.466504,-5.474275 -1.396484,-7.941406 -0.929975,-2.491088 -2.273792,-4.681953 -4.033204,-6.574219 -1.759412,-1.91622 -4.008388,-3.425517 -6.748046,-4.527344 -2.714523,-1.101827 -5.768957,-1.652344 -9.16211,-1.652344 l -4.675781,0 c -1.080782,0 -1.820505,-0.228492 -2.222656,-0.683593 -0.402152,-0.455104 -0.603516,-1.089904 -0.603516,-1.904297 0,-0.814394 0.362897,-1.449195 1.091797,-1.904297 0.754034,-0.455102 2.213435,-0.681641 4.375,-0.681641 1.770302,0 3.267936,0.07829 4.611328,0.201172 l 3.320312,-1.972656 C 71.08499,42.527535 68.444036,42.25398 65.324071,42.25398 Z"
             id="path4380" />
        </g>
      </g>
      <g
         inkscape:export-ydpi="918.15222"
         inkscape:export-xdpi="918.15222"
         transform="translate(-0.08726048,-1.4427048)"
         id="g4414"
         style="fill:#000000;fill-opacity:1">
        <g
           transform="matrix(1.0070794,0,0,0.9863428,-8.2961257e-4,1.2483541)"
           id="g4416"
           style="fill:#000000;fill-opacity:1">
          <path
             id="path4418"
             d="m 31.761719,0.16015625 c -4.289574,0 -8.392112,0.80375705 -12.306641,2.41210935 C 15.563988,4.1582796 12.20151,6.3029339 9.3652344,9.0058594 6.5523988,11.686447 4.3009828,14.892564 2.6132812,18.623047 0.94902025,22.331192 0.1171875,26.22851 0.1171875,30.316406 c 0,4.087896 0.83183275,7.996079 2.4960937,11.726563 1.6877014,3.708145 3.9391176,6.914261 6.7519532,9.617187 2.8362756,2.680587 6.1987536,4.814377 10.0898436,6.400391 3.914529,1.608353 8.017067,2.412109 12.306641,2.412109 4.583287,0 8.895306,-0.874974 12.939453,-2.615234 -0.438802,-0.691003 -0.828065,-1.416847 -1.183594,-2.167969 -3.683504,1.575305 -7.600062,2.371094 -11.755859,2.371094 -3.93797,0 -7.712461,-0.725749 -11.322266,-2.177735 -3.586365,-1.474322 -6.679377,-3.452097 -9.28125,-5.93164 C 8.5563298,47.471629 6.4806532,44.523217 4.9335938,41.105469 3.4099743,37.665382 2.6484375,34.069228 2.6484375,30.316406 c 0,-3.752822 0.7615368,-7.338111 2.2851563,-10.755859 1.5470594,-3.440087 3.622736,-6.399364 6.2246092,-8.878906 2.601873,-2.4795443 5.694885,-4.4464532 9.28125,-5.8984379 3.609805,-1.4743229 7.384296,-2.2109375 11.322266,-2.2109375 4.899022,0 9.458481,1.083192 13.677734,3.25 4.164183,2.1267109 7.565573,5.0114894 10.216797,8.6445314 l 2.128906,-1.285156 C 54.897375,9.202908 51.194689,6.0429542 46.669922,3.7109375 42.075624,1.3430855 37.106107,0.16015625 31.761719,0.16015625 Z m 0,4.82421875 c -4.805261,0 -9.247561,1.1394695 -13.326172,3.4179688 -4.078612,2.2561612 -7.312215,5.3279922 -9.7031251,9.2148442 -2.36747,3.886851 -3.5527344,8.119882 -3.5527344,12.699218 0,4.579336 1.1852644,8.812368 3.5527344,12.699219 2.3909101,3.886852 5.6245131,6.969548 9.7031251,9.248047 4.078611,2.25616 8.520911,3.384766 13.326172,3.384766 3.855629,-10e-7 7.475078,-0.733503 10.861328,-2.191407 -0.263113,-0.7757 -0.482922,-1.569132 -0.65625,-2.380859 -3.169435,1.437095 -6.570212,2.158203 -10.205078,2.158203 -3.258202,0 -6.376598,-0.60233 -9.353516,-1.808594 -2.976917,-1.206264 -5.542711,-2.826595 -7.699219,-4.859375 -2.133066,-2.055116 -3.83188,-4.500936 -5.0976559,-7.33789 -1.2657762,-2.836955 -1.8984375,-5.807096 -1.8984375,-8.91211 0,-3.105014 0.6326613,-6.077108 1.8984375,-8.914062 1.2657759,-2.836956 2.9645899,-5.269956 5.0976559,-7.302735 2.156508,-2.055116 4.722302,-3.686313 7.699219,-4.8925778 2.976918,-1.2062641 6.095314,-1.8105468 9.353516,-1.8105468 4.055171,0 7.829661,0.9054473 11.322265,2.7148436 3.371851,1.71377 6.132302,4.030242 8.296875,6.935547 l 2.126953,-1.283203 C 51.106777,12.512303 48.047948,9.9191425 44.314453,8 40.446804,5.9895596 36.262256,4.984375 31.761719,4.984375 Z m 0,4.8261719 c -3.89109,0 -7.489841,0.9143591 -10.794922,2.7460941 -3.305082,1.831734 -5.917739,4.322966 -7.839844,7.472656 -1.922104,3.14969 -2.882812,6.578963 -2.882812,10.287109 0,3.708146 0.960708,7.13742 2.882812,10.28711 1.922105,3.14969 4.534762,5.638968 7.839844,7.470703 3.305081,1.831734 6.903832,2.748047 10.794922,2.748047 3.510022,0 6.777918,-0.756707 9.80664,-2.257813 -0.07594,-0.780022 -0.123046,-1.572319 -0.123047,-2.382812 0,-0.108241 0.01022,-0.212603 0.01172,-0.320313 -0.240696,0.136882 -0.479457,0.275566 -0.728515,0.404297 -2.765956,1.429647 -5.755477,2.144531 -8.966797,2.144531 -3.445724,0 -6.6227,-0.803757 -9.529297,-2.412109 -2.906597,-1.630691 -5.21464,-3.831623 -6.925781,-6.601563 -1.687702,-2.76994 -2.53125,-5.796359 -2.53125,-9.080078 0,-3.28372 0.843548,-6.310139 2.53125,-9.080078 1.711141,-2.769941 4.019184,-4.960007 6.925781,-6.568359 2.906597,-1.630691 6.083573,-2.445313 9.529297,-2.445313 3.21132,0 6.189125,0.714885 8.93164,2.144532 2.585231,1.315355 4.714298,3.074211 6.398438,5.267578 l 2.128906,-1.285157 C 47.298504,15.78969 44.859229,13.743733 41.888672,12.222656 38.771113,10.614304 35.394965,9.8105469 31.761719,9.8105469 Z m 0,4.8242191 c -2.226828,0 -4.359132,0.413719 -6.398438,1.240234 -2.015866,0.826515 -3.763496,1.942301 -5.240234,3.349609 -1.476739,1.407309 -2.648334,3.083919 -3.515625,5.027344 -0.867291,1.921087 -1.300781,3.942321 -1.300781,6.064453 0,2.122132 0.43349,4.154232 1.300781,6.097656 0.867291,1.921088 2.038886,3.58488 3.515625,4.992188 1.476738,1.407308 3.224368,2.525048 5.240234,3.351562 2.039306,0.826516 4.17161,1.240235 6.398438,1.240235 2.765955,0 5.343464,-0.615147 7.734375,-1.84375 0.785424,-0.403602 1.51773,-0.859806 2.207031,-1.357422 0.169647,-1.080871 0.423101,-2.132376 0.759766,-3.154297 0.184762,-0.560834 0.3997,-1.106601 0.634765,-1.642578 -1.24017,1.666749 -2.821003,3.010626 -4.761718,4.009766 -2.015867,1.049896 -4.206749,1.576172 -6.574219,1.576172 -3.844209,-10e-7 -7.126629,-1.295485 -9.845703,-3.886719 -2.719074,-2.591235 -4.078125,-5.719344 -4.078125,-9.382813 0,-3.663469 1.359051,-6.791578 4.078125,-9.382812 2.719074,-2.591235 6.001494,-3.886719 9.845703,-3.886719 2.36747,0 4.558352,0.526275 6.574219,1.576172 1.792678,0.903289 3.287236,2.099879 4.482421,3.589844 l 2.103516,-1.269532 C 43.488,19.101823 41.693292,17.622714 39.53125,16.511719 37.140339,15.260778 34.551114,14.634766 31.761719,14.634766 Z"
             style="font-style:normal;font-variant:normal;font-weight:normal;font-stretch:normal;font-size:medium;line-height:125%;font-family:Monoton;-inkscape-font-specification:'Monoton, Normal';text-align:start;letter-spacing:0px;word-spacing:0px;writing-mode:lr-tb;text-anchor:start;display:inline;fill:#c91740;fill-opacity:1;stroke:none;stroke-width:1px;stroke-linecap:butt;stroke-linejoin:miter;stroke-opacity:1"
             inkscape:connector-curvature="0" />
          <path
             id="path4420"
             d="m 65.324071,26.732496 c -3.091541,0 -5.970512,0.359543 -8.634766,1.078125 -2.639119,0.69463 -4.925974,1.67777 -6.861328,2.947266 -1.91022,1.245542 -3.557057,2.730479 -4.939453,4.455078 -1.357262,1.724598 -2.374104,3.615845 -3.052734,5.675781 -0.678631,2.059937 -1.017579,4.239599 -1.017579,6.539063 1e-6,2.874329 0.476532,5.557742 1.431641,8.048828 0.955111,2.491086 2.324828,4.681951 4.109375,6.574219 1.809682,1.892267 4.110464,3.377204 6.900391,4.455078 2.81506,1.077874 5.955271,1.617187 9.423828,1.617187 l 4.072265,0 c 1.105919,0 1.859567,0.239695 2.261719,0.71875 0.427286,0.455102 0.642578,1.078699 0.642578,1.869141 0,0.814393 -0.378778,1.449195 -1.132812,1.904297 -0.7289,0.455102 -2.172419,0.68164 -4.333985,0.68164 -0.230766,0 -0.43881,-0.0057 -0.662109,-0.0078 l -3.855469,2.357422 c 1.37994,0.151076 2.871328,0.238281 4.517578,0.238281 5.403914,0 8.105469,-1.724633 8.105469,-5.173828 0,-1.532976 -0.428631,-2.778218 -1.283203,-3.736328 -0.854572,-0.95811 -2.248239,-1.4375 -4.183594,-1.4375 l -4.148437,0 c -4.021515,0 -7.502626,-0.814572 -10.443359,-2.44336 -2.940734,-1.652739 -5.125929,-3.832401 -6.558594,-6.539062 -1.432665,-2.70666 -2.150391,-5.749616 -2.150391,-9.126953 0,-2.51504 0.478484,-4.861316 1.433594,-7.041016 0.980244,-2.1797 2.361937,-4.097261 4.146484,-5.75 1.809683,-1.65274 4.096537,-2.944749 6.861328,-3.878906 2.789927,-0.95811 5.90814,-1.4375 9.351563,-1.4375 4.398532,0 8.51966,0.610441 12.365234,1.832031 3.316564,1.032887 6.152639,2.441577 8.515625,4.222656 l 2.390625,-1.419922 c -2.65548,-2.15242 -5.873695,-3.85515 -9.662109,-5.101562 -4.222591,-1.413212 -8.758422,-2.121094 -13.609375,-2.121094 z m 0,5.173828 c -6.032274,0 -10.719615,1.473734 -14.0625,4.419922 -3.342885,2.922235 -5.015625,6.622398 -5.015625,11.101563 0,4.479163 1.445473,8.192483 4.335937,11.138671 2.915599,2.922236 6.948996,4.382813 12.101563,4.382813 l 4.109375,0 c 2.940733,0 5.066054,0.719085 6.373047,2.15625 1.306992,1.413212 1.960937,3.282051 1.960937,5.605469 0,2.323416 -0.881211,4.203459 -2.640625,5.640625 -1.734278,1.413212 -4.497663,2.11914 -8.292969,2.11914 -2.967609,0 -5.578723,-0.265584 -7.84375,-0.789062 l -2.908203,1.777344 c 0.582489,0.199619 1.181219,0.390037 1.816407,0.55664 2.764792,0.69463 5.743468,1.042969 8.935546,1.042969 4.549341,0 7.954695,-0.95878 10.216797,-2.875 2.287238,-1.91622 3.429688,-4.406705 3.429688,-7.472656 0,-3.018047 -0.917137,-5.497328 -2.751953,-7.4375 -1.834818,-1.940173 -4.586227,-2.910156 -8.25586,-2.910156 l -4.148437,0 c -4.423667,-1e-6 -7.815094,-1.209679 -10.177735,-3.628907 -2.362639,-2.44318 -3.544921,-5.546059 -3.544921,-9.30664 0,-3.784535 1.395618,-6.88546 4.185547,-9.304688 2.815061,-2.419227 6.87436,-3.628906 12.177734,-3.628906 3.594229,0 6.949731,0.443827 10.066406,1.330078 2.241684,0.637441 4.205092,1.46356 5.900391,2.472656 l 2.474609,-1.470703 c -2.031225,-1.383417 -4.428697,-2.499769 -7.207031,-3.33789 -3.468557,-1.053923 -7.21286,-1.582032 -11.234375,-1.582032 z m 0,5.173828 c -4.54934,0 -7.96862,0.958781 -10.25586,2.875 -2.262101,1.91622 -3.392578,4.406704 -3.392578,7.472657 0,3.065951 0.917137,5.558389 2.751954,7.474609 1.834814,1.91622 4.586226,2.873047 8.255859,2.873047 l 4.261719,0 c 4.373398,0 7.7289,1.222837 10.066406,3.666015 2.36264,2.443181 3.542969,5.532902 3.542969,9.269532 0,3.784534 -1.407596,6.88546 -4.222657,9.304687 -2.789926,2.419229 -6.835296,3.628907 -12.138672,3.628907 -3.594228,-10e-7 -6.96366,-0.441874 -10.105468,-1.328126 -1.203559,-0.342241 -2.324424,-0.740853 -3.369141,-1.191406 l -2.601562,1.591797 c 1.457219,0.749299 3.045081,1.403373 4.802734,1.933594 3.493692,1.053921 7.251922,1.582031 11.273437,1.582031 6.032275,0 10.719617,-1.46253 14.0625,-4.384766 3.342885,-2.946188 5.013672,-6.657555 5.013672,-11.136718 0,-4.407306 -1.445473,-8.096266 -4.335937,-11.066406 -2.86533,-2.970142 -6.848874,-4.455079 -11.951172,-4.455079 l -4.298828,0 c -2.940733,0 -5.064101,-0.707881 -6.371094,-2.121093 -1.281858,-1.413212 -1.921875,-3.293256 -1.921875,-5.640625 0,-2.323418 0.867285,-4.190304 2.601563,-5.603516 1.759414,-1.437165 4.536726,-2.15625 8.332031,-2.15625 4.352587,0 7.950522,0.567152 10.802734,1.695313 l 2.603516,-1.544922 C 77.401896,39.150998 75.91342,38.587497 74.220555,38.158277 71.480897,37.439695 68.516148,37.080152 65.324071,37.080152 Z m 0,5.173828 c -5.403912,0 -8.107422,1.724632 -8.107422,5.173829 0,1.556928 0.428631,2.815327 1.283203,3.773437 0.854572,0.934157 2.24824,1.400391 4.183594,1.400391 l 4.5625,0 c 3.920977,0 7.314358,0.838932 10.179687,2.515625 2.890465,1.676692 5.039735,3.867559 6.447266,6.574218 1.407527,2.682709 2.111328,5.6901 2.111328,9.019532 0,2.515038 -0.490462,4.861315 -1.470703,7.041015 -0.955111,2.1797 -2.336802,4.09726 -4.146484,5.75 -1.784548,1.65274 -4.073356,2.957906 -6.863282,3.916016 -2.764792,0.934157 -5.867122,1.400391 -9.310547,1.400391 -4.398532,0 -8.533588,-0.599238 -12.404296,-1.796875 -2.310742,-0.734034 -4.383255,-1.651167 -6.230469,-2.740235 l -2.457031,1.501953 c 2.174962,1.412342 4.651159,2.583303 7.443359,3.501953 4.247725,1.413213 8.797484,2.121094 13.648437,2.121094 3.091541,0 5.956584,-0.359542 8.595704,-1.078125 2.664254,-0.694629 4.951108,-1.664613 6.861328,-2.910156 1.935354,-1.269496 3.582192,-2.76759 4.939453,-4.492187 1.382399,-1.724599 2.41317,-3.615845 3.091797,-5.675782 0.678633,-2.059936 1.017578,-4.239599 1.017578,-6.539062 0,-2.826425 -0.466504,-5.474275 -1.396484,-7.941406 -0.929975,-2.491088 -2.273792,-4.681953 -4.033204,-6.574219 -1.759412,-1.91622 -4.008388,-3.425517 -6.748046,-4.527344 -2.714523,-1.101827 -5.768957,-1.652344 -9.16211,-1.652344 l -4.675781,0 c -1.080782,0 -1.820505,-0.228492 -2.222656,-0.683593 -0.402152,-0.455104 -0.603516,-1.089904 -0.603516,-1.904297 0,-0.814394 0.362897,-1.449195 1.091797,-1.904297 0.754034,-0.455102 2.213435,-0.681641 4.375,-0.681641 1.770302,0 3.267936,0.07829 4.611328,0.201172 l 3.320312,-1.972656 C 71.08499,42.527535 68.444036,42.25398 65.324071,42.25398 Z"
             style="font-style:normal;font-variant:normal;font-weight:normal;font-stretch:normal;font-size:medium;line-height:125%;font-family:Monoton;-inkscape-font-specification:'Monoton, Normal';text-align:start;letter-spacing:0px;word-spacing:0px;writing-mode:lr-tb;text-anchor:start;fill:#000000;fill-opacity:1;stroke:none;stroke-width:1px;stroke-linecap:butt;stroke-linejoin:miter;stroke-opacity:1"
             inkscape:connector-curvature="0" />
        </g>
      </g>
      <g
         inkscape:export-ydpi="918.15222"
         inkscape:export-xdpi="918.15222"
         transform="translate(188.5733,-1.1362098)"
         id="g4428"
         style="fill:#ffffff;fill-opacity:1">
        <g
           transform="matrix(1.0070794,0,0,0.9863428,-8.2961257e-4,1.2483541)"
           id="g4430"
           style="fill:#ffffff;fill-opacity:1">
          <path
             id="path4432"
             d="m 31.761719,0.16015625 c -4.289574,0 -8.392112,0.80375705 -12.306641,2.41210935 C 15.563988,4.1582796 12.20151,6.3029339 9.3652344,9.0058594 6.5523988,11.686447 4.3009828,14.892564 2.6132812,18.623047 0.94902025,22.331192 0.1171875,26.22851 0.1171875,30.316406 c 0,4.087896 0.83183275,7.996079 2.4960937,11.726563 1.6877014,3.708145 3.9391176,6.914261 6.7519532,9.617187 2.8362756,2.680587 6.1987536,4.814377 10.0898436,6.400391 3.914529,1.608353 8.017067,2.412109 12.306641,2.412109 4.583287,0 8.895306,-0.874974 12.939453,-2.615234 -0.438802,-0.691003 -0.828065,-1.416847 -1.183594,-2.167969 -3.683504,1.575305 -7.600062,2.371094 -11.755859,2.371094 -3.93797,0 -7.712461,-0.725749 -11.322266,-2.177735 -3.586365,-1.474322 -6.679377,-3.452097 -9.28125,-5.93164 C 8.5563298,47.471629 6.4806532,44.523217 4.9335938,41.105469 3.4099743,37.665382 2.6484375,34.069228 2.6484375,30.316406 c 0,-3.752822 0.7615368,-7.338111 2.2851563,-10.755859 1.5470594,-3.440087 3.622736,-6.399364 6.2246092,-8.878906 2.601873,-2.4795443 5.694885,-4.4464532 9.28125,-5.8984379 3.609805,-1.4743229 7.384296,-2.2109375 11.322266,-2.2109375 4.899022,0 9.458481,1.083192 13.677734,3.25 4.164183,2.1267109 7.565573,5.0114894 10.216797,8.6445314 l 2.128906,-1.285156 C 54.897375,9.202908 51.194689,6.0429542 46.669922,3.7109375 42.075624,1.3430855 37.106107,0.16015625 31.761719,0.16015625 Z m 0,4.82421875 c -4.805261,0 -9.247561,1.1394695 -13.326172,3.4179688 -4.078612,2.2561612 -7.312215,5.3279922 -9.7031251,9.2148442 -2.36747,3.886851 -3.5527344,8.119882 -3.5527344,12.699218 0,4.579336 1.1852644,8.812368 3.5527344,12.699219 2.3909101,3.886852 5.6245131,6.969548 9.7031251,9.248047 4.078611,2.25616 8.520911,3.384766 13.326172,3.384766 3.855629,-10e-7 7.475078,-0.733503 10.861328,-2.191407 -0.263113,-0.7757 -0.482922,-1.569132 -0.65625,-2.380859 -3.169435,1.437095 -6.570212,2.158203 -10.205078,2.158203 -3.258202,0 -6.376598,-0.60233 -9.353516,-1.808594 -2.976917,-1.206264 -5.542711,-2.826595 -7.699219,-4.859375 -2.133066,-2.055116 -3.83188,-4.500936 -5.0976559,-7.33789 -1.2657762,-2.836955 -1.8984375,-5.807096 -1.8984375,-8.91211 0,-3.105014 0.6326613,-6.077108 1.8984375,-8.914062 1.2657759,-2.836956 2.9645899,-5.269956 5.0976559,-7.302735 2.156508,-2.055116 4.722302,-3.686313 7.699219,-4.8925778 2.976918,-1.2062641 6.095314,-1.8105468 9.353516,-1.8105468 4.055171,0 7.829661,0.9054473 11.322265,2.7148436 3.371851,1.71377 6.132302,4.030242 8.296875,6.935547 l 2.126953,-1.283203 C 51.106777,12.512303 48.047948,9.9191425 44.314453,8 40.446804,5.9895596 36.262256,4.984375 31.761719,4.984375 Z m 0,4.8261719 c -3.89109,0 -7.489841,0.9143591 -10.794922,2.7460941 -3.305082,1.831734 -5.917739,4.322966 -7.839844,7.472656 -1.922104,3.14969 -2.882812,6.578963 -2.882812,10.287109 0,3.708146 0.960708,7.13742 2.882812,10.28711 1.922105,3.14969 4.534762,5.638968 7.839844,7.470703 3.305081,1.831734 6.903832,2.748047 10.794922,2.748047 3.510022,0 6.777918,-0.756707 9.80664,-2.257813 -0.07594,-0.780022 -0.123046,-1.572319 -0.123047,-2.382812 0,-0.108241 0.01022,-0.212603 0.01172,-0.320313 -0.240696,0.136882 -0.479457,0.275566 -0.728515,0.404297 -2.765956,1.429647 -5.755477,2.144531 -8.966797,2.144531 -3.445724,0 -6.6227,-0.803757 -9.529297,-2.412109 -2.906597,-1.630691 -5.21464,-3.831623 -6.925781,-6.601563 -1.687702,-2.76994 -2.53125,-5.796359 -2.53125,-9.080078 0,-3.28372 0.843548,-6.310139 2.53125,-9.080078 1.711141,-2.769941 4.019184,-4.960007 6.925781,-6.568359 2.906597,-1.630691 6.083573,-2.445313 9.529297,-2.445313 3.21132,0 6.189125,0.714885 8.93164,2.144532 2.585231,1.315355 4.714298,3.074211 6.398438,5.267578 l 2.128906,-1.285157 C 47.298504,15.78969 44.859229,13.743733 41.888672,12.222656 38.771113,10.614304 35.394965,9.8105469 31.761719,9.8105469 Z m 0,4.8242191 c -2.226828,0 -4.359132,0.413719 -6.398438,1.240234 -2.015866,0.826515 -3.763496,1.942301 -5.240234,3.349609 -1.476739,1.407309 -2.648334,3.083919 -3.515625,5.027344 -0.867291,1.921087 -1.300781,3.942321 -1.300781,6.064453 0,2.122132 0.43349,4.154232 1.300781,6.097656 0.867291,1.921088 2.038886,3.58488 3.515625,4.992188 1.476738,1.407308 3.224368,2.525048 5.240234,3.351562 2.039306,0.826516 4.17161,1.240235 6.398438,1.240235 2.765955,0 5.343464,-0.615147 7.734375,-1.84375 0.785424,-0.403602 1.51773,-0.859806 2.207031,-1.357422 0.169647,-1.080871 0.423101,-2.132376 0.759766,-3.154297 0.184762,-0.560834 0.3997,-1.106601 0.634765,-1.642578 -1.24017,1.666749 -2.821003,3.010626 -4.761718,4.009766 -2.015867,1.049896 -4.206749,1.576172 -6.574219,1.576172 -3.844209,-10e-7 -7.126629,-1.295485 -9.845703,-3.886719 -2.719074,-2.591235 -4.078125,-5.719344 -4.078125,-9.382813 0,-3.663469 1.359051,-6.791578 4.078125,-9.382812 2.719074,-2.591235 6.001494,-3.886719 9.845703,-3.886719 2.36747,0 4.558352,0.526275 6.574219,1.576172 1.792678,0.903289 3.287236,2.099879 4.482421,3.589844 l 2.103516,-1.269532 C 43.488,19.101823 41.693292,17.622714 39.53125,16.511719 37.140339,15.260778 34.551114,14.634766 31.761719,14.634766 Z"
             style="font-style:normal;font-variant:normal;font-weight:normal;font-stretch:normal;font-size:medium;line-height:125%;font-family:Monoton;-inkscape-font-specification:'Monoton, Normal';text-align:start;letter-spacing:0px;word-spacing:0px;writing-mode:lr-tb;text-anchor:start;display:inline;fill:#ffffff;fill-opacity:1;stroke:none;stroke-width:1px;stroke-linecap:butt;stroke-linejoin:miter;stroke-opacity:1"
             inkscape:connector-curvature="0" />
          <path
             id="path4434"
             d="m 65.324071,26.732496 c -3.091541,0 -5.970512,0.359543 -8.634766,1.078125 -2.639119,0.69463 -4.925974,1.67777 -6.861328,2.947266 -1.91022,1.245542 -3.557057,2.730479 -4.939453,4.455078 -1.357262,1.724598 -2.374104,3.615845 -3.052734,5.675781 -0.678631,2.059937 -1.017579,4.239599 -1.017579,6.539063 1e-6,2.874329 0.476532,5.557742 1.431641,8.048828 0.955111,2.491086 2.324828,4.681951 4.109375,6.574219 1.809682,1.892267 4.110464,3.377204 6.900391,4.455078 2.81506,1.077874 5.955271,1.617187 9.423828,1.617187 l 4.072265,0 c 1.105919,0 1.859567,0.239695 2.261719,0.71875 0.427286,0.455102 0.642578,1.078699 0.642578,1.869141 0,0.814393 -0.378778,1.449195 -1.132812,1.904297 -0.7289,0.455102 -2.172419,0.68164 -4.333985,0.68164 -0.230766,0 -0.43881,-0.0057 -0.662109,-0.0078 l -3.855469,2.357422 c 1.37994,0.151076 2.871328,0.238281 4.517578,0.238281 5.403914,0 8.105469,-1.724633 8.105469,-5.173828 0,-1.532976 -0.428631,-2.778218 -1.283203,-3.736328 -0.854572,-0.95811 -2.248239,-1.4375 -4.183594,-1.4375 l -4.148437,0 c -4.021515,0 -7.502626,-0.814572 -10.443359,-2.44336 -2.940734,-1.652739 -5.125929,-3.832401 -6.558594,-6.539062 -1.432665,-2.70666 -2.150391,-5.749616 -2.150391,-9.126953 0,-2.51504 0.478484,-4.861316 1.433594,-7.041016 0.980244,-2.1797 2.361937,-4.097261 4.146484,-5.75 1.809683,-1.65274 4.096537,-2.944749 6.861328,-3.878906 2.789927,-0.95811 5.90814,-1.4375 9.351563,-1.4375 4.398532,0 8.51966,0.610441 12.365234,1.832031 3.316564,1.032887 6.152639,2.441577 8.515625,4.222656 l 2.390625,-1.419922 c -2.65548,-2.15242 -5.873695,-3.85515 -9.662109,-5.101562 -4.222591,-1.413212 -8.758422,-2.121094 -13.609375,-2.121094 z m 0,5.173828 c -6.032274,0 -10.719615,1.473734 -14.0625,4.419922 -3.342885,2.922235 -5.015625,6.622398 -5.015625,11.101563 0,4.479163 1.445473,8.192483 4.335937,11.138671 2.915599,2.922236 6.948996,4.382813 12.101563,4.382813 l 4.109375,0 c 2.940733,0 5.066054,0.719085 6.373047,2.15625 1.306992,1.413212 1.960937,3.282051 1.960937,5.605469 0,2.323416 -0.881211,4.203459 -2.640625,5.640625 -1.734278,1.413212 -4.497663,2.11914 -8.292969,2.11914 -2.967609,0 -5.578723,-0.265584 -7.84375,-0.789062 l -2.908203,1.777344 c 0.582489,0.199619 1.181219,0.390037 1.816407,0.55664 2.764792,0.69463 5.743468,1.042969 8.935546,1.042969 4.549341,0 7.954695,-0.95878 10.216797,-2.875 2.287238,-1.91622 3.429688,-4.406705 3.429688,-7.472656 0,-3.018047 -0.917137,-5.497328 -2.751953,-7.4375 -1.834818,-1.940173 -4.586227,-2.910156 -8.25586,-2.910156 l -4.148437,0 c -4.423667,-1e-6 -7.815094,-1.209679 -10.177735,-3.628907 -2.362639,-2.44318 -3.544921,-5.546059 -3.544921,-9.30664 0,-3.784535 1.395618,-6.88546 4.185547,-9.304688 2.815061,-2.419227 6.87436,-3.628906 12.177734,-3.628906 3.594229,0 6.949731,0.443827 10.066406,1.330078 2.241684,0.637441 4.205092,1.46356 5.900391,2.472656 l 2.474609,-1.470703 c -2.031225,-1.383417 -4.428697,-2.499769 -7.207031,-3.33789 -3.468557,-1.053923 -7.21286,-1.582032 -11.234375,-1.582032 z m 0,5.173828 c -4.54934,0 -7.96862,0.958781 -10.25586,2.875 -2.262101,1.91622 -3.392578,4.406704 -3.392578,7.472657 0,3.065951 0.917137,5.558389 2.751954,7.474609 1.834814,1.91622 4.586226,2.873047 8.255859,2.873047 l 4.261719,0 c 4.373398,0 7.7289,1.222837 10.066406,3.666015 2.36264,2.443181 3.542969,5.532902 3.542969,9.269532 0,3.784534 -1.407596,6.88546 -4.222657,9.304687 -2.789926,2.419229 -6.835296,3.628907 -12.138672,3.628907 -3.594228,-10e-7 -6.96366,-0.441874 -10.105468,-1.328126 -1.203559,-0.342241 -2.324424,-0.740853 -3.369141,-1.191406 l -2.601562,1.591797 c 1.457219,0.749299 3.045081,1.403373 4.802734,1.933594 3.493692,1.053921 7.251922,1.582031 11.273437,1.582031 6.032275,0 10.719617,-1.46253 14.0625,-4.384766 3.342885,-2.946188 5.013672,-6.657555 5.013672,-11.136718 0,-4.407306 -1.445473,-8.096266 -4.335937,-11.066406 -2.86533,-2.970142 -6.848874,-4.455079 -11.951172,-4.455079 l -4.298828,0 c -2.940733,0 -5.064101,-0.707881 -6.371094,-2.121093 -1.281858,-1.413212 -1.921875,-3.293256 -1.921875,-5.640625 0,-2.323418 0.867285,-4.190304 2.601563,-5.603516 1.759414,-1.437165 4.536726,-2.15625 8.332031,-2.15625 4.352587,0 7.950522,0.567152 10.802734,1.695313 l 2.603516,-1.544922 C 77.401896,39.150998 75.91342,38.587497 74.220555,38.158277 71.480897,37.439695 68.516148,37.080152 65.324071,37.080152 Z m 0,5.173828 c -5.403912,0 -8.107422,1.724632 -8.107422,5.173829 0,1.556928 0.428631,2.815327 1.283203,3.773437 0.854572,0.934157 2.24824,1.400391 4.183594,1.400391 l 4.5625,0 c 3.920977,0 7.314358,0.838932 10.179687,2.515625 2.890465,1.676692 5.039735,3.867559 6.447266,6.574218 1.407527,2.682709 2.111328,5.6901 2.111328,9.019532 0,2.515038 -0.490462,4.861315 -1.470703,7.041015 -0.955111,2.1797 -2.336802,4.09726 -4.146484,5.75 -1.784548,1.65274 -4.073356,2.957906 -6.863282,3.916016 -2.764792,0.934157 -5.867122,1.400391 -9.310547,1.400391 -4.398532,0 -8.533588,-0.599238 -12.404296,-1.796875 -2.310742,-0.734034 -4.383255,-1.651167 -6.230469,-2.740235 l -2.457031,1.501953 c 2.174962,1.412342 4.651159,2.583303 7.443359,3.501953 4.247725,1.413213 8.797484,2.121094 13.648437,2.121094 3.091541,0 5.956584,-0.359542 8.595704,-1.078125 2.664254,-0.694629 4.951108,-1.664613 6.861328,-2.910156 1.935354,-1.269496 3.582192,-2.76759 4.939453,-4.492187 1.382399,-1.724599 2.41317,-3.615845 3.091797,-5.675782 0.678633,-2.059936 1.017578,-4.239599 1.017578,-6.539062 0,-2.826425 -0.466504,-5.474275 -1.396484,-7.941406 -0.929975,-2.491088 -2.273792,-4.681953 -4.033204,-6.574219 -1.759412,-1.91622 -4.008388,-3.425517 -6.748046,-4.527344 -2.714523,-1.101827 -5.768957,-1.652344 -9.16211,-1.652344 l -4.675781,0 c -1.080782,0 -1.820505,-0.228492 -2.222656,-0.683593 -0.402152,-0.455104 -0.603516,-1.089904 -0.603516,-1.904297 0,-0.814394 0.362897,-1.449195 1.091797,-1.904297 0.754034,-0.455102 2.213435,-0.681641 4.375,-0.681641 1.770302,0 3.267936,0.07829 4.611328,0.201172 l 3.320312,-1.972656 C 71.08499,42.527535 68.444036,42.25398 65.324071,42.25398 Z"
             style="font-style:normal;font-variant:normal;font-weight:normal;font-stretch:normal;font-size:medium;line-height:125%;font-family:Monoton;-inkscape-font-specification:'Monoton, Normal';text-align:start;letter-spacing:0px;word-spacing:0px;writing-mode:lr-tb;text-anchor:start;fill:#ffffff;fill-opacity:1;stroke:none;stroke-width:1px;stroke-linecap:butt;stroke-linejoin:miter;stroke-opacity:1"
             inkscape:connector-curvature="0" />
        </g>
      </g>
      <g
         style="fill:#000000;fill-opacity:1"
         id="g4436"
         transform="translate(288.5239,-1.1362098)"
         inkscape:export-xdpi="918.15222"
         inkscape:export-ydpi="918.15222">
        <g
           style="fill:#000000;fill-opacity:1"
           id="g4438"
           transform="matrix(1.0070794,0,0,0.9863428,-8.2961257e-4,1.2483541)">
          <path
             inkscape:connector-curvature="0"
             style="font-style:normal;font-variant:normal;font-weight:normal;font-stretch:normal;font-size:medium;line-height:125%;font-family:Monoton;-inkscape-font-specification:'Monoton, Normal';text-align:start;letter-spacing:0px;word-spacing:0px;writing-mode:lr-tb;text-anchor:start;display:inline;fill:#000000;fill-opacity:1;stroke:none;stroke-width:1px;stroke-linecap:butt;stroke-linejoin:miter;stroke-opacity:1"
             d="m 31.761719,0.16015625 c -4.289574,0 -8.392112,0.80375705 -12.306641,2.41210935 C 15.563988,4.1582796 12.20151,6.3029339 9.3652344,9.0058594 6.5523988,11.686447 4.3009828,14.892564 2.6132812,18.623047 0.94902025,22.331192 0.1171875,26.22851 0.1171875,30.316406 c 0,4.087896 0.83183275,7.996079 2.4960937,11.726563 1.6877014,3.708145 3.9391176,6.914261 6.7519532,9.617187 2.8362756,2.680587 6.1987536,4.814377 10.0898436,6.400391 3.914529,1.608353 8.017067,2.412109 12.306641,2.412109 4.583287,0 8.895306,-0.874974 12.939453,-2.615234 -0.438802,-0.691003 -0.828065,-1.416847 -1.183594,-2.167969 -3.683504,1.575305 -7.600062,2.371094 -11.755859,2.371094 -3.93797,0 -7.712461,-0.725749 -11.322266,-2.177735 -3.586365,-1.474322 -6.679377,-3.452097 -9.28125,-5.93164 C 8.5563298,47.471629 6.4806532,44.523217 4.9335938,41.105469 3.4099743,37.665382 2.6484375,34.069228 2.6484375,30.316406 c 0,-3.752822 0.7615368,-7.338111 2.2851563,-10.755859 1.5470594,-3.440087 3.622736,-6.399364 6.2246092,-8.878906 2.601873,-2.4795443 5.694885,-4.4464532 9.28125,-5.8984379 3.609805,-1.4743229 7.384296,-2.2109375 11.322266,-2.2109375 4.899022,0 9.458481,1.083192 13.677734,3.25 4.164183,2.1267109 7.565573,5.0114894 10.216797,8.6445314 l 2.128906,-1.285156 C 54.897375,9.202908 51.194689,6.0429542 46.669922,3.7109375 42.075624,1.3430855 37.106107,0.16015625 31.761719,0.16015625 Z m 0,4.82421875 c -4.805261,0 -9.247561,1.1394695 -13.326172,3.4179688 -4.078612,2.2561612 -7.312215,5.3279922 -9.7031251,9.2148442 -2.36747,3.886851 -3.5527344,8.119882 -3.5527344,12.699218 0,4.579336 1.1852644,8.812368 3.5527344,12.699219 2.3909101,3.886852 5.6245131,6.969548 9.7031251,9.248047 4.078611,2.25616 8.520911,3.384766 13.326172,3.384766 3.855629,-10e-7 7.475078,-0.733503 10.861328,-2.191407 -0.263113,-0.7757 -0.482922,-1.569132 -0.65625,-2.380859 -3.169435,1.437095 -6.570212,2.158203 -10.205078,2.158203 -3.258202,0 -6.376598,-0.60233 -9.353516,-1.808594 -2.976917,-1.206264 -5.542711,-2.826595 -7.699219,-4.859375 -2.133066,-2.055116 -3.83188,-4.500936 -5.0976559,-7.33789 -1.2657762,-2.836955 -1.8984375,-5.807096 -1.8984375,-8.91211 0,-3.105014 0.6326613,-6.077108 1.8984375,-8.914062 1.2657759,-2.836956 2.9645899,-5.269956 5.0976559,-7.302735 2.156508,-2.055116 4.722302,-3.686313 7.699219,-4.8925778 2.976918,-1.2062641 6.095314,-1.8105468 9.353516,-1.8105468 4.055171,0 7.829661,0.9054473 11.322265,2.7148436 3.371851,1.71377 6.132302,4.030242 8.296875,6.935547 l 2.126953,-1.283203 C 51.106777,12.512303 48.047948,9.9191425 44.314453,8 40.446804,5.9895596 36.262256,4.984375 31.761719,4.984375 Z m 0,4.8261719 c -3.89109,0 -7.489841,0.9143591 -10.794922,2.7460941 -3.305082,1.831734 -5.917739,4.322966 -7.839844,7.472656 -1.922104,3.14969 -2.882812,6.578963 -2.882812,10.287109 0,3.708146 0.960708,7.13742 2.882812,10.28711 1.922105,3.14969 4.534762,5.638968 7.839844,7.470703 3.305081,1.831734 6.903832,2.748047 10.794922,2.748047 3.510022,0 6.777918,-0.756707 9.80664,-2.257813 -0.07594,-0.780022 -0.123046,-1.572319 -0.123047,-2.382812 0,-0.108241 0.01022,-0.212603 0.01172,-0.320313 -0.240696,0.136882 -0.479457,0.275566 -0.728515,0.404297 -2.765956,1.429647 -5.755477,2.144531 -8.966797,2.144531 -3.445724,0 -6.6227,-0.803757 -9.529297,-2.412109 -2.906597,-1.630691 -5.21464,-3.831623 -6.925781,-6.601563 -1.687702,-2.76994 -2.53125,-5.796359 -2.53125,-9.080078 0,-3.28372 0.843548,-6.310139 2.53125,-9.080078 1.711141,-2.769941 4.019184,-4.960007 6.925781,-6.568359 2.906597,-1.630691 6.083573,-2.445313 9.529297,-2.445313 3.21132,0 6.189125,0.714885 8.93164,2.144532 2.585231,1.315355 4.714298,3.074211 6.398438,5.267578 l 2.128906,-1.285157 C 47.298504,15.78969 44.859229,13.743733 41.888672,12.222656 38.771113,10.614304 35.394965,9.8105469 31.761719,9.8105469 Z m 0,4.8242191 c -2.226828,0 -4.359132,0.413719 -6.398438,1.240234 -2.015866,0.826515 -3.763496,1.942301 -5.240234,3.349609 -1.476739,1.407309 -2.648334,3.083919 -3.515625,5.027344 -0.867291,1.921087 -1.300781,3.942321 -1.300781,6.064453 0,2.122132 0.43349,4.154232 1.300781,6.097656 0.867291,1.921088 2.038886,3.58488 3.515625,4.992188 1.476738,1.407308 3.224368,2.525048 5.240234,3.351562 2.039306,0.826516 4.17161,1.240235 6.398438,1.240235 2.765955,0 5.343464,-0.615147 7.734375,-1.84375 0.785424,-0.403602 1.51773,-0.859806 2.207031,-1.357422 0.169647,-1.080871 0.423101,-2.132376 0.759766,-3.154297 0.184762,-0.560834 0.3997,-1.106601 0.634765,-1.642578 -1.24017,1.666749 -2.821003,3.010626 -4.761718,4.009766 -2.015867,1.049896 -4.206749,1.576172 -6.574219,1.576172 -3.844209,-10e-7 -7.126629,-1.295485 -9.845703,-3.886719 -2.719074,-2.591235 -4.078125,-5.719344 -4.078125,-9.382813 0,-3.663469 1.359051,-6.791578 4.078125,-9.382812 2.719074,-2.591235 6.001494,-3.886719 9.845703,-3.886719 2.36747,0 4.558352,0.526275 6.574219,1.576172 1.792678,0.903289 3.287236,2.099879 4.482421,3.589844 l 2.103516,-1.269532 C 43.488,19.101823 41.693292,17.622714 39.53125,16.511719 37.140339,15.260778 34.551114,14.634766 31.761719,14.634766 Z"
             id="path4440" />
          <path
             inkscape:connector-curvature="0"
             style="font-style:normal;font-variant:normal;font-weight:normal;font-stretch:normal;font-size:medium;line-height:125%;font-family:Monoton;-inkscape-font-specification:'Monoton, Normal';text-align:start;letter-spacing:0px;word-spacing:0px;writing-mode:lr-tb;text-anchor:start;fill:#000000;fill-opacity:1;stroke:none;stroke-width:1px;stroke-linecap:butt;stroke-linejoin:miter;stroke-opacity:1"
             d="m 65.324071,26.732496 c -3.091541,0 -5.970512,0.359543 -8.634766,1.078125 -2.639119,0.69463 -4.925974,1.67777 -6.861328,2.947266 -1.91022,1.245542 -3.557057,2.730479 -4.939453,4.455078 -1.357262,1.724598 -2.374104,3.615845 -3.052734,5.675781 -0.678631,2.059937 -1.017579,4.239599 -1.017579,6.539063 1e-6,2.874329 0.476532,5.557742 1.431641,8.048828 0.955111,2.491086 2.324828,4.681951 4.109375,6.574219 1.809682,1.892267 4.110464,3.377204 6.900391,4.455078 2.81506,1.077874 5.955271,1.617187 9.423828,1.617187 l 4.072265,0 c 1.105919,0 1.859567,0.239695 2.261719,0.71875 0.427286,0.455102 0.642578,1.078699 0.642578,1.869141 0,0.814393 -0.378778,1.449195 -1.132812,1.904297 -0.7289,0.455102 -2.172419,0.68164 -4.333985,0.68164 -0.230766,0 -0.43881,-0.0057 -0.662109,-0.0078 l -3.855469,2.357422 c 1.37994,0.151076 2.871328,0.238281 4.517578,0.238281 5.403914,0 8.105469,-1.724633 8.105469,-5.173828 0,-1.532976 -0.428631,-2.778218 -1.283203,-3.736328 -0.854572,-0.95811 -2.248239,-1.4375 -4.183594,-1.4375 l -4.148437,0 c -4.021515,0 -7.502626,-0.814572 -10.443359,-2.44336 -2.940734,-1.652739 -5.125929,-3.832401 -6.558594,-6.539062 -1.432665,-2.70666 -2.150391,-5.749616 -2.150391,-9.126953 0,-2.51504 0.478484,-4.861316 1.433594,-7.041016 0.980244,-2.1797 2.361937,-4.097261 4.146484,-5.75 1.809683,-1.65274 4.096537,-2.944749 6.861328,-3.878906 2.789927,-0.95811 5.90814,-1.4375 9.351563,-1.4375 4.398532,0 8.51966,0.610441 12.365234,1.832031 3.316564,1.032887 6.152639,2.441577 8.515625,4.222656 l 2.390625,-1.419922 c -2.65548,-2.15242 -5.873695,-3.85515 -9.662109,-5.101562 -4.222591,-1.413212 -8.758422,-2.121094 -13.609375,-2.121094 z m 0,5.173828 c -6.032274,0 -10.719615,1.473734 -14.0625,4.419922 -3.342885,2.922235 -5.015625,6.622398 -5.015625,11.101563 0,4.479163 1.445473,8.192483 4.335937,11.138671 2.915599,2.922236 6.948996,4.382813 12.101563,4.382813 l 4.109375,0 c 2.940733,0 5.066054,0.719085 6.373047,2.15625 1.306992,1.413212 1.960937,3.282051 1.960937,5.605469 0,2.323416 -0.881211,4.203459 -2.640625,5.640625 -1.734278,1.413212 -4.497663,2.11914 -8.292969,2.11914 -2.967609,0 -5.578723,-0.265584 -7.84375,-0.789062 l -2.908203,1.777344 c 0.582489,0.199619 1.181219,0.390037 1.816407,0.55664 2.764792,0.69463 5.743468,1.042969 8.935546,1.042969 4.549341,0 7.954695,-0.95878 10.216797,-2.875 2.287238,-1.91622 3.429688,-4.406705 3.429688,-7.472656 0,-3.018047 -0.917137,-5.497328 -2.751953,-7.4375 -1.834818,-1.940173 -4.586227,-2.910156 -8.25586,-2.910156 l -4.148437,0 c -4.423667,-1e-6 -7.815094,-1.209679 -10.177735,-3.628907 -2.362639,-2.44318 -3.544921,-5.546059 -3.544921,-9.30664 0,-3.784535 1.395618,-6.88546 4.185547,-9.304688 2.815061,-2.419227 6.87436,-3.628906 12.177734,-3.628906 3.594229,0 6.949731,0.443827 10.066406,1.330078 2.241684,0.637441 4.205092,1.46356 5.900391,2.472656 l 2.474609,-1.470703 c -2.031225,-1.383417 -4.428697,-2.499769 -7.207031,-3.33789 -3.468557,-1.053923 -7.21286,-1.582032 -11.234375,-1.582032 z m 0,5.173828 c -4.54934,0 -7.96862,0.958781 -10.25586,2.875 -2.262101,1.91622 -3.392578,4.406704 -3.392578,7.472657 0,3.065951 0.917137,5.558389 2.751954,7.474609 1.834814,1.91622 4.586226,2.873047 8.255859,2.873047 l 4.261719,0 c 4.373398,0 7.7289,1.222837 10.066406,3.666015 2.36264,2.443181 3.542969,5.532902 3.542969,9.269532 0,3.784534 -1.407596,6.88546 -4.222657,9.304687 -2.789926,2.419229 -6.835296,3.628907 -12.138672,3.628907 -3.594228,-10e-7 -6.96366,-0.441874 -10.105468,-1.328126 -1.203559,-0.342241 -2.324424,-0.740853 -3.369141,-1.191406 l -2.601562,1.591797 c 1.457219,0.749299 3.045081,1.403373 4.802734,1.933594 3.493692,1.053921 7.251922,1.582031 11.273437,1.582031 6.032275,0 10.719617,-1.46253 14.0625,-4.384766 3.342885,-2.946188 5.013672,-6.657555 5.013672,-11.136718 0,-4.407306 -1.445473,-8.096266 -4.335937,-11.066406 -2.86533,-2.970142 -6.848874,-4.455079 -11.951172,-4.455079 l -4.298828,0 c -2.940733,0 -5.064101,-0.707881 -6.371094,-2.121093 -1.281858,-1.413212 -1.921875,-3.293256 -1.921875,-5.640625 0,-2.323418 0.867285,-4.190304 2.601563,-5.603516 1.759414,-1.437165 4.536726,-2.15625 8.332031,-2.15625 4.352587,0 7.950522,0.567152 10.802734,1.695313 l 2.603516,-1.544922 C 77.401896,39.150998 75.91342,38.587497 74.220555,38.158277 71.480897,37.439695 68.516148,37.080152 65.324071,37.080152 Z m 0,5.173828 c -5.403912,0 -8.107422,1.724632 -8.107422,5.173829 0,1.556928 0.428631,2.815327 1.283203,3.773437 0.854572,0.934157 2.24824,1.400391 4.183594,1.400391 l 4.5625,0 c 3.920977,0 7.314358,0.838932 10.179687,2.515625 2.890465,1.676692 5.039735,3.867559 6.447266,6.574218 1.407527,2.682709 2.111328,5.6901 2.111328,9.019532 0,2.515038 -0.490462,4.861315 -1.470703,7.041015 -0.955111,2.1797 -2.336802,4.09726 -4.146484,5.75 -1.784548,1.65274 -4.073356,2.957906 -6.863282,3.916016 -2.764792,0.934157 -5.867122,1.400391 -9.310547,1.400391 -4.398532,0 -8.533588,-0.599238 -12.404296,-1.796875 -2.310742,-0.734034 -4.383255,-1.651167 -6.230469,-2.740235 l -2.457031,1.501953 c 2.174962,1.412342 4.651159,2.583303 7.443359,3.501953 4.247725,1.413213 8.797484,2.121094 13.648437,2.121094 3.091541,0 5.956584,-0.359542 8.595704,-1.078125 2.664254,-0.694629 4.951108,-1.664613 6.861328,-2.910156 1.935354,-1.269496 3.582192,-2.76759 4.939453,-4.492187 1.382399,-1.724599 2.41317,-3.615845 3.091797,-5.675782 0.678633,-2.059936 1.017578,-4.239599 1.017578,-6.539062 0,-2.826425 -0.466504,-5.474275 -1.396484,-7.941406 -0.929975,-2.491088 -2.273792,-4.681953 -4.033204,-6.574219 -1.759412,-1.91622 -4.008388,-3.425517 -6.748046,-4.527344 -2.714523,-1.101827 -5.768957,-1.652344 -9.16211,-1.652344 l -4.675781,0 c -1.080782,0 -1.820505,-0.228492 -2.222656,-0.683593 -0.402152,-0.455104 -0.603516,-1.089904 -0.603516,-1.904297 0,-0.814394 0.362897,-1.449195 1.091797,-1.904297 0.754034,-0.455102 2.213435,-0.681641 4.375,-0.681641 1.770302,0 3.267936,0.07829 4.611328,0.201172 l 3.320312,-1.972656 C 71.08499,42.527535 68.444036,42.25398 65.324071,42.25398 Z"
             id="path4442" />
        </g>
      </g>
    </g>
  </g>
</svg>
