<?xml version="1.0" encoding="UTF-8" standalone="no"?>
<!-- Created with Inkscape (http://www.inkscape.org/) -->

<svg
   xmlns:dc="http://purl.org/dc/elements/1.1/"
   xmlns:cc="http://creativecommons.org/ns#"
   xmlns:rdf="http://www.w3.org/1999/02/22-rdf-syntax-ns#"
   xmlns:svg="http://www.w3.org/2000/svg"
   xmlns="http://www.w3.org/2000/svg"
   xmlns:sodipodi="http://sodipodi.sourceforge.net/DTD/sodipodi-0.dtd"
   xmlns:inkscape="http://www.inkscape.org/namespaces/inkscape"
   width="210mm"
   height="297mm"
   viewBox="0 0 744.09448819 1052.3622047"
   id="svg2"
   version="1.1"
   inkscape:version="0.91 r13725"
   sodipodi:docname="drawing.svg">
  <defs
     id="defs4">
    <filter
       style="color-interpolation-filters:sRGB;"
       inkscape:label="Invert"
       id="filter4347">
      <feColorMatrix
         values="1 0 0 0 0 0 1 0 0 0 0 0 1 0 0 -0.21 -0.72 -0.07 2 0 "
         result="fbSourceGraphic"
         id="feColorMatrix4349" />
      <feColorMatrix
         result="fbSourceGraphicAlpha"
         in="fbSourceGraphic"
         values="0 0 0 -1 0 0 0 0 -1 0 0 0 0 -1 0 0 0 0 1 0"
         id="feColorMatrix4351" />
      <feColorMatrix
         id="feColorMatrix4353"
         type="hueRotate"
         values="180"
         result="color1"
         in="fbSourceGraphic" />
      <feColorMatrix
         id="feColorMatrix4355"
         values="-1 0 0 0 1 0 -1 0 0 1 0 0 -1 0 1 -0.21 -0.72 -0.07 2 0 "
         result="fbSourceGraphic" />
      <feColorMatrix
         result="fbSourceGraphicAlpha"
         in="fbSourceGraphic"
         values="0 0 0 -1 0 0 0 0 -1 0 0 0 0 -1 0 0 0 0 1 0"
         id="feColorMatrix4357" />
      <feColorMatrix
         id="feColorMatrix4359"
         type="hueRotate"
         values="180"
         result="color1"
         in="fbSourceGraphic" />
      <feColorMatrix
         id="feColorMatrix4361"
         values="-1 0 0 0 1 0 -1 0 0 1 0 0 -1 0 1 -0.21 -0.72 -0.07 2 0 "
         result="fbSourceGraphic" />
      <feColorMatrix
         result="fbSourceGraphicAlpha"
         in="fbSourceGraphic"
         values="0 0 0 -1 0 0 0 0 -1 0 0 0 0 -1 0 0 0 0 1 0"
         id="feColorMatrix4363" />
      <feColorMatrix
         id="feColorMatrix4365"
         type="hueRotate"
         values="180"
         result="color1"
         in="fbSourceGraphic" />
      <feColorMatrix
         id="feColorMatrix4367"
         values="-1 0 0 0 1 0 -1 0 0 1 0 0 -1 0 1 -0.21 -0.72 -0.07 2 0 "
         result="color2" />
    </filter>
    <filter
       style="color-interpolation-filters:sRGB;"
       inkscape:label="Invert"
       id="filter4568">
      <feColorMatrix
         type="hueRotate"
         values="180"
         result="color1"
         id="feColorMatrix4570" />
      <feColorMatrix
         values="-1 0 0 0 1 0 -1 0 0 1 0 0 -1 0 1 -0.21 -0.72 -0.07 2 0 "
         result="color2"
         id="feColorMatrix4572" />
    </filter>
  </defs>
  <sodipodi:namedview
     id="base"
     pagecolor="#ffffff"
     bordercolor="#666666"
     borderopacity="1.0"
     inkscape:pageopacity="0.0"
     inkscape:pageshadow="2"
     inkscape:zoom="0.7"
     inkscape:cx="294.98557"
     inkscape:cy="852.63245"
     inkscape:document-units="px"
     inkscape:current-layer="layer3"
     showgrid="false"
     inkscape:window-width="1400"
     inkscape:window-height="856"
     inkscape:window-x="180"
     inkscape:window-y="68"
     inkscape:window-maximized="0" />
  <metadata
     id="metadata7">
    <rdf:RDF>
      <cc:Work
         rdf:about="">
        <dc:format>image/svg+xml</dc:format>
        <dc:type
           rdf:resource="http://purl.org/dc/dcmitype/StillImage" />
      </cc:Work>
    </rdf:RDF>
  </metadata>
  <g
     inkscape:groupmode="layer"
     id="layer3"
     inkscape:label="Layer 2">
    <rect
       style="fill:#ffffff;fill-opacity:1"
       id="rect4786"
       width="505.71432"
       height="221.42857"
       x="1.4285711"
       y="0.93363273"
       inkscape:export-filename="/Users/hlt/Desktop/g4758.png"
       inkscape:export-xdpi="216"
       inkscape:export-ydpi="216" />
  </g>
  <g
     inkscape:label="Layer 1"
     inkscape:groupmode="layer"
     id="layer1">
    <g
       inkscape:export-ydpi="216"
       inkscape:export-xdpi="216"
       inkscape:export-filename="/Users/hlt/Desktop/g4758.png"
       id="g4750"
       transform="translate(42.324881,20.162441)">
      <g
         transform="matrix(1.3536689,0,0,1.4897601,-11.685519,-88.503913)"
         id="g4510">
        <path
           inkscape:connector-curvature="0"
           style="fill:#000000"
           d="m 206.33398,67.621094 c -1.14028,0 -2.07421,0.186006 -2.07421,0.414062 0,0.236941 -1.24375,0.416016 -2.90235,0.416016 -1.65859,0 -2.90234,0.177116 -2.90234,0.414062 0,0.228056 -0.74598,0.414063 -1.6582,0.414063 -0.91222,0 -1.65821,0.187958 -1.65821,0.416015 0,0.228056 -0.37396,0.414063 -0.83008,0.414063 -0.45611,0 -0.82812,0.186006 -0.82812,0.414063 0,0.228055 -0.37397,0.414062 -0.83008,0.414062 -0.55286,0 -0.83008,0.27721 -0.83008,0.830078 0,0.456112 0.18796,0.830078 0.41602,0.830078 0.22806,0 0.41406,0.372013 0.41406,0.828125 0,0.456112 0.186,0.830078 0.41406,0.830078 0.22805,0 0.41602,0.559973 0.41602,1.244141 0,0.684168 0.18601,1.244141 0.41406,1.244141 0.22806,0 0.41406,0.479975 0.41406,1.066406 0,0.586431 0.26601,1.332411 0.5918,1.658203 0.66975,0.669746 3.55469,0.813989 3.55469,0.177734 0,-0.228057 0.66214,-0.416015 1.4707,-0.416015 2.17176,0 3.50586,1.491308 3.50586,3.919922 0,1.036619 -0.186,1.886718 -0.41406,1.886718 -0.22805,0 -0.41602,0.745979 -0.41602,1.658203 0,0.912224 -0.18601,1.658204 -0.41406,1.658204 -0.22807,0 -0.41406,0.745979 -0.41406,1.658203 0,0.912223 -0.18796,1.658203 -0.41602,1.658203 -0.22805,0 -0.41406,0.373966 -0.41406,0.830078 0,0.456113 -0.18601,0.830078 -0.41406,0.830078 -0.22806,0 -0.41602,0.745979 -0.41602,1.658203 0,0.912225 -0.186,1.658203 -0.41406,1.658203 -0.22806,0 -0.41406,0.559973 -0.41406,1.244141 0,0.684169 -0.18601,1.244141 -0.41407,1.244141 -0.22805,0 -0.41601,0.559975 -0.41601,1.244144 0,0.68417 -0.18601,1.24414 -0.41406,1.24414 -0.22805,0 -0.41407,0.37201 -0.41407,0.82812 0,0.45611 -0.18796,0.83008 -0.41601,0.83008 -0.22806,0 -0.41406,0.55997 -0.41406,1.24414 0,0.68417 -0.18601,1.24414 -0.41407,1.24414 -0.22805,0 -0.41601,0.55803 -0.41601,1.24219 0,0.68417 -0.18602,1.24414 -0.41407,1.24414 -0.22806,0 -0.41406,0.37397 -0.41406,0.83008 0,0.45611 -0.186,0.83008 -0.41406,0.83008 -0.22806,0 -0.41602,0.37201 -0.41602,0.82812 0,0.45611 -0.186,0.83008 -0.41406,0.83008 -0.22805,0 -0.41406,0.55997 -0.41406,1.24414 0,0.68417 -0.18797,1.24414 -0.41602,1.24414 -0.22806,0 -0.41406,0.372 -0.41406,0.82812 0,0.45611 -0.186,0.83008 -0.41406,0.83008 -0.22806,0 -0.41602,0.37202 -0.41602,0.82813 0,0.45612 -0.186,0.83008 -0.41406,0.83008 -0.22806,0 -0.41406,0.55998 -0.41406,1.24414 0,0.68417 -0.186,1.24414 -0.41407,1.24414 -0.22804,0 -0.41601,0.55997 -0.41601,1.24414 0,0.68417 -0.18601,1.24414 -0.41406,1.24414 -0.22806,0 -0.41407,0.372 -0.41407,0.82812 0,0.45611 -0.18794,0.83008 -0.41601,0.83008 -0.22805,0 -0.41406,0.37202 -0.41406,0.82813 0,0.45611 -0.18601,0.83008 -0.41407,0.83008 -0.22806,0 -0.41601,0.55997 -0.41601,1.24414 0,0.68416 -0.186,1.24414 -0.41406,1.24414 -0.22805,0 -0.41407,0.37201 -0.41407,0.82812 0,0.45612 -0.186,0.83008 -0.41406,0.83008 -0.22805,0 -0.41602,0.37395 -0.41602,0.83008 0,0.4561 -0.18601,0.82812 -0.41406,0.82812 -0.22806,0 -0.41406,0.37397 -0.41406,0.83008 0,0.45611 -0.18796,0.82813 -0.41602,0.82813 -0.22806,0 -0.41406,0.55997 -0.41406,1.24414 0,0.68417 -0.186,1.24414 -0.41406,1.24414 -0.22804,0 -0.41602,0.37397 -0.41602,0.83007 0,0.45612 -0.18602,0.82813 -0.41406,0.82813 -0.22806,0 -0.41406,0.37396 -0.41406,0.83008 0,0.4561 -0.186,0.83008 -0.41406,0.83008 -0.22806,0 -0.41602,0.74597 -0.41602,1.6582 l 0,1.6582 4.5625,0 c 2.76432,0 4.56055,0.16277 4.56055,0.41407 0,0.23437 1.18449,0.41601 2.72461,0.41601 2.80161,0 3.91015,-0.52198 3.91015,-1.83789 0,-0.35837 0.18602,-0.65039 0.41407,-0.65039 0.22805,0 0.41406,-0.37396 0.41406,-0.83008 0,-0.4561 0.18796,-0.82812 0.41601,-0.82812 0.22806,0 0.41407,-0.74793 0.41407,-1.66016 0,-0.91222 0.186,-1.6582 0.41406,-1.6582 0.22806,0 0.41406,-0.37203 0.41406,-0.82813 0,-0.45611 0.18796,-0.83008 0.41602,-0.83008 0.22805,0 0.41406,-0.37396 0.41406,-0.83007 0,-0.45611 0.18601,-0.82813 0.41406,-0.82813 0.22806,0 0.41602,-0.37397 0.41602,-0.83008 0,-0.45612 0.18599,-0.82812 0.41406,-0.82812 0.22805,0 0.41406,-0.55997 0.41406,-1.24414 0,-0.68417 0.18797,-1.24414 0.41602,-1.24414 0.22806,0 0.41406,-0.37397 0.41406,-0.83008 0,-0.45611 0.186,-0.82813 0.41406,-0.82813 0.22805,0 0.41407,-0.37396 0.41407,-0.83007 0,-0.45611 0.18796,-0.83008 0.41601,-0.83008 0.22806,0 0.41406,-0.37202 0.41406,-0.82813 0,-0.45611 0.18601,-0.83008 0.41407,-0.83008 0.22805,0 0.41601,-0.33055 0.41601,-0.73632 0,-0.40577 0.37201,-1.00719 0.82813,-1.33594 0.45611,-0.32875 0.83007,-0.93017 0.83007,-1.33594 0,-0.40576 0.18602,-0.73828 0.41407,-0.73828 0.22805,0 0.41406,-0.37201 0.41406,-0.82813 0,-0.45611 0.18797,-0.83007 0.41602,-0.83007 0.22806,0 0.41406,-0.33254 0.41406,-0.73829 0,-0.40577 0.37397,-1.00718 0.83008,-1.33593 0.45611,-0.32875 0.82812,-0.85055 0.82812,-1.16016 0,-0.30962 0.74598,-1.27979 1.6582,-2.15625 0.91223,-0.87647 1.66016,-1.79868 1.66016,-2.04883 0,-0.64236 5.26255,-5.83008 5.91406,-5.83007 0.29597,0 0.80602,-0.37202 1.13477,-0.82813 0.32876,-0.45612 0.88872,-0.83008 1.24414,-0.83008 0.35542,0 0.91538,-0.37201 1.24414,-0.82812 0.4517,-0.6267 1.07344,-0.83008 2.54492,-0.83008 1.15228,0 2.04436,-0.21085 2.1875,-0.51758 0.19349,-0.414644 0.29088,-0.414644 0.48438,0 0.13303,0.28507 0.89398,0.51758 1.68945,0.51758 1.53721,0 2.62891,0.76307 2.62891,1.83594 0,0.35837 0.18796,0.65234 0.41601,0.65234 0.22806,0 0.41406,0.74597 0.41406,1.6582 0,0.91222 -0.186,1.65821 -0.41406,1.65821 -0.22805,0 -0.41601,0.55997 -0.41601,1.24414 0,0.68417 -0.18602,1.24414 -0.41407,1.24414 -0.22806,0 -0.41406,0.55998 -0.41406,1.24414 0,0.68417 -0.186,1.24414 -0.41406,1.24414 -0.22805,0 -0.41602,0.37201 -0.41602,0.82812 0,0.45611 -0.18601,0.83008 -0.41406,0.83008 -0.22805,0 -0.41406,0.51852 -0.41406,1.15235 0,0.67673 -0.34309,1.399 -0.83008,1.75 -0.45612,0.32875 -0.83008,0.93017 -0.83008,1.33593 0,0.40577 -0.186,0.73828 -0.41406,0.73828 -0.22805,0 -0.41406,0.55803 -0.41406,1.24219 0,0.68416 -0.18602,1.24414 -0.41407,1.24414 -0.22806,0 -0.41601,0.37396 -0.41601,0.83008 0,0.45611 -0.18599,0.83008 -0.41406,0.83008 -0.22805,0 -0.41407,0.55803 -0.41407,1.24219 0,0.68417 -0.18796,1.24414 -0.41601,1.24414 -0.22806,0 -0.41406,0.74793 -0.41406,1.66015 0,0.91222 -0.18601,1.65821 -0.41407,1.65821 -0.24879,0 -0.41601,1.65859 -0.41601,4.14648 0,2.48789 0.16722,4.14648 0.41601,4.14648 0.22806,0 0.41407,0.47074 0.41407,1.04688 0,1.1712 3.27462,4.75781 4.34375,4.75781 0.34809,0 0.63281,0.18602 0.63281,0.41407 0,0.22805 0.372,0.41601 0.82812,0.41601 0.45611,0 0.83008,0.186 0.83008,0.41406 0,0.25341 1.93386,0.41407 4.97461,0.41407 3.04075,0 4.97656,-0.16066 4.97656,-0.41407 0,-0.22806 0.55998,-0.41406 1.24414,-0.41406 0.68417,0 1.24414,-0.18796 1.24414,-0.41601 0,-0.22804 0.55998,-0.41407 1.24414,-0.41407 0.68418,0 1.24415,-0.18602 1.24415,-0.41406 0,-0.22806 0.372,-0.41602 0.82812,-0.41602 0.4561,0 0.83008,-0.186 0.83008,-0.41406 0,-0.22806 0.33056,-0.41406 0.73633,-0.41406 0.40576,0 1.00718,-0.37396 1.33593,-0.83008 0.32875,-0.4561 0.84439,-0.82812 1.14649,-0.82812 0.75683,0 2.58594,-1.89215 2.58594,-2.67579 0,-0.35245 -0.18601,-0.64257 -0.41407,-0.64257 -0.22806,0 -0.41601,-0.33056 -0.41601,-0.73633 0,-0.40577 -0.37201,-1.00719 -0.82813,-1.33594 -0.48698,-0.351 -0.83007,-1.07521 -0.83007,-1.75195 0,-0.63382 -0.18601,-1.15039 -0.41407,-1.15039 -0.22805,0 -0.41406,-0.47998 -0.41406,-1.06641 0,-0.58643 -0.28306,-1.34944 -0.62891,-1.69531 -0.56202,-0.56203 -0.75716,-0.494 -1.82617,0.65039 -0.65785,0.70424 -1.45332,1.28125 -1.76758,1.28125 -0.31427,0 -0.8392,0.37395 -1.16797,0.83008 -0.46957,0.65149 -1.07343,0.82812 -2.8164,0.82812 -3.03505,0 -3.4043,-0.46799 -3.4043,-4.32422 0,-1.81655 0.17609,-3.13867 0.41602,-3.13867 0.22805,0 0.41406,-0.51853 0.41406,-1.15234 0,-0.67674 0.34114,-1.399 0.82812,-1.75 0.45744,-0.32971 0.83008,-1.07496 0.83008,-1.66016 0,-0.5852 0.37263,-1.32849 0.83008,-1.6582 0.45612,-0.32875 0.82813,-0.93017 0.82813,-1.33594 0,-0.40577 0.18795,-0.73633 0.41601,-0.73633 0.22806,0 0.41406,-0.37397 0.41406,-0.83008 0,-0.45611 0.18601,-0.82812 0.41407,-0.82812 0.22804,0 0.41406,-0.37396 0.41406,-0.83008 0,-0.4561 0.18797,-0.83008 0.41601,-0.83008 0.22806,0 0.41407,-0.37201 0.41407,-0.82812 0,-0.45612 0.186,-0.83008 0.41406,-0.83008 0.22806,0 0.41602,-0.37201 0.41602,-0.82812 0,-0.45611 0.186,-0.83008 0.41406,-0.83008 0.22806,0 0.41406,-0.55997 0.41406,-1.24414 0,-0.68417 0.18796,-1.24414 0.41602,-1.24414 0.22805,0 0.41406,-0.74599 0.41406,-1.65821 0,-0.91223 0.18602,-1.6582 0.41406,-1.6582 0.24188,0 0.41406,-1.38335 0.41406,-3.318359 0,-1.935016 -0.17218,-3.316407 -0.41406,-3.316407 -0.22804,0 -0.41406,-0.745978 -0.41406,-1.658203 0,-0.912224 -0.18601,-1.658203 -0.41406,-1.658203 -0.22806,0 -0.41602,-0.373965 -0.41602,-0.830078 0,-0.483499 -0.27561,-0.830078 -0.66211,-0.830078 -0.36461,0 -1.18706,-0.55802 -1.82617,-1.242188 -0.71459,-0.764962 -1.57562,-1.24414 -2.23828,-1.24414 -0.59266,0 -1.07813,-0.187959 -1.07813,-0.416016 0,-0.228056 -0.93199,-0.414062 -2.07226,-0.414062 -1.14029,0 -2.07422,-0.186007 -2.07422,-0.414063 0,-0.228056 -0.37397,-0.416015 -0.83008,-0.416015 -0.45611,0 -0.82812,0.187959 -0.82812,0.416015 0,0.23694 -1.24376,0.414063 -2.90235,0.414063 -1.65859,0 -2.90234,0.177116 -2.90234,0.414062 0,0.228057 -0.55997,0.416016 -1.24414,0.416016 -0.68417,0 -1.24414,0.186006 -1.24414,0.414062 0,0.228056 -0.37397,0.414063 -0.83008,0.414063 -0.45611,0 -0.82813,0.187959 -0.82813,0.416015 0,0.228056 -0.37395,0.414063 -0.83007,0.414063 -0.4561,0 -0.83008,0.186006 -0.83008,0.414062 0,0.228056 -0.37203,0.414063 -0.82813,0.414063 -0.45612,0 -0.83008,0.18796 -0.83008,0.416016 0,0.228055 -0.28221,0.414062 -0.62695,0.414062 -0.76159,0 -9.32422,8.48027 -9.32422,9.23438 0,0.29439 -0.37396,0.8021 -0.83008,1.13085 -0.45611,0.32874 -0.82812,0.85213 -0.82812,1.16016 0,0.55641 -0.9685,1.74414 -1.42188,1.74414 -0.13031,0 -0.23632,-0.55997 -0.23632,-1.24414 0,-0.68417 0.186,-1.24414 0.41406,-1.24414 0.22804,0 0.41406,-0.55997 0.41406,-1.24414 0,-0.68416 0.18798,-1.24414 0.41602,-1.24414 0.22807,0 0.41406,-0.55997 0.41406,-1.244142 0,-0.684168 0.18599,-1.24414 0.41406,-1.24414 0.22805,0 0.41406,-0.372012 0.41406,-0.828126 0,-0.456111 0.18796,-0.830078 0.41602,-0.830078 0.22806,0 0.41406,-0.559971 0.41406,-1.24414 0,-0.684168 0.18601,-1.244141 0.41407,-1.244141 0.22804,0 0.41601,-0.559973 0.41601,-1.244141 0,-0.684167 0.18601,-1.24414 0.41406,-1.24414 0.22805,0 0.41407,-0.55802 0.41407,-1.242188 0,-0.684169 0.18796,-1.24414 0.41601,-1.24414 0.22806,0 0.41406,-0.373966 0.41406,-0.830078 0,-0.456113 0.18601,-0.830079 0.41407,-0.830078 0.23036,0 0.41406,-1.104173 0.41406,-2.486329 0,-1.382162 0.18566,-2.488281 0.41601,-2.488281 0.24879,0 0.41407,-1.658599 0.41407,-4.146484 0,-2.487884 -0.16528,-4.146485 -0.41407,-4.146485 -0.22805,0 -0.41601,-0.473041 -0.41601,-1.050781 0,-1.168025 -2.46513,-3.925781 -3.50977,-3.925781 -0.34969,0 -0.63672,-0.186007 -0.63672,-0.414063 0,-0.228056 -0.93198,-0.414062 -2.07226,-0.414062 -1.14028,0 -2.07422,-0.187959 -2.07422,-0.416016 0,-0.228056 -0.93198,-0.414062 -2.07227,-0.414062 z"
           id="path4484" />
        <path
           style="fill:#000000"
           d="m 286.12081,86.666851 c -2.21146,0 -3.73242,0.16833 -3.73242,0.41406 0,0.22805 -0.93198,0.41602 -2.07227,0.41602 -1.14028,0 -2.07421,0.186 -2.07421,0.41406 0,0.22806 -0.37201,0.41406 -0.82813,0.41406 -0.4561,0 -0.83008,0.18796 -0.83008,0.41602 0,0.22805 -0.28472,0.41406 -0.63281,0.41406 -0.82285,0 -4.34375,3.5209 -4.34375,4.34375 0,0.34809 -0.186,0.63282 -0.41406,0.63281 -0.22805,0 -0.41406,0.37202 -0.41406,0.82813 0,0.45611 -0.18797,0.83008 -0.41602,0.83008 -0.22805,0 -0.41406,0.74598 -0.41406,1.6582 0,0.912229 -0.18602,1.658199 -0.41407,1.658199 -0.22806,0 -0.41406,0.55997 -0.41406,1.24415 0,0.68416 0.186,1.24414 0.41406,1.24414 0.22805,0 0.41407,0.74597 0.41407,1.6582 0,0.91223 0.18601,1.6582 0.41406,1.6582 0.22805,0 0.41602,0.37397 0.41602,0.83008 0,0.45611 0.18601,0.83008 0.41406,0.83008 0.22806,0 0.41406,0.29201 0.41406,0.65039 0,0.83801 0.99792,1.83594 1.83594,1.83594 0.35838,0 0.65234,0.18796 0.65234,0.41601 0,0.22806 0.37397,0.41406 0.83008,0.41406 0.45612,0 0.82812,0.18601 0.82812,0.41407 0,0.24571 1.52098,0.41601 3.73243,0.41601 2.21145,0 3.73242,-0.1703 3.73242,-0.41601 0,-0.22806 0.28704,-0.41407 0.63672,-0.41407 1.04464,0 3.50976,-2.75775 3.50976,-3.92578 0,-0.57774 0.18601,-1.05078 0.41407,-1.05078 0.22806,0 0.41406,-0.74597 0.41406,-1.6582 0,-0.91223 -0.18601,-1.6582 -0.41406,-1.6582 -0.22806,0 -0.41407,-0.28703 -0.41407,-0.63672 0,-0.34968 -0.64691,-1.28167 -1.4375,-2.07227 -1.29378,-1.293789 -1.66732,-1.437499 -3.73242,-1.437499 -2.43781,0 -2.64013,-0.12746 -1.70117,-1.06641 0.69683,-0.69682 6.87109,-0.85654 6.87109,-0.17773 0,0.22806 0.55997,0.41406 1.24414,0.41406 0.68416,0 1.24414,0.18797 1.24414,0.41602 0,0.22806 0.74599,0.41406 1.65821,0.41406 0.91222,0 1.6582,0.186 1.6582,0.41406 0,0.228059 0.74598,0.416019 1.6582,0.416019 0.91222,0 1.65821,0.18601 1.65821,0.41406 0,0.25916 2.48829,0.41406 6.63476,0.41406 4.14648,0 6.63477,-0.1549 6.63477,-0.41406 0,-0.22805 0.55998,-0.41406 1.24414,-0.41406 0.68418,0 1.24414,-0.18796 1.24414,-0.416019 0,-0.22806 0.55996,-0.41406 1.24414,-0.41406 0.68416,0 1.24414,-0.186 1.24414,-0.41406 0,-0.22805 0.74597,-0.41602 1.6582,-0.41602 0.91222,0 1.65821,0.10796 1.65821,0.23828 0,0.4865 -1.20754,1.421879 -1.83594,1.421879 -0.35839,0 -0.65235,0.18601 -0.65235,0.41406 0,0.22806 -0.37199,0.41406 -0.82812,0.41406 -0.4561,0 -0.83008,0.18602 -0.83008,0.41407 0,0.22806 -0.33251,0.41601 -0.73828,0.41601 -0.40577,0 -1.00719,0.37202 -1.33594,0.82813 -0.32875,0.45611 -0.93017,0.83008 -1.33593,0.83008 -0.40577,0 -0.73633,0.186 -0.73633,0.41406 0,0.22806 -0.37397,0.41601 -0.83008,0.41601 -0.45611,0 -0.82813,0.18601 -0.82813,0.41407 0,0.22806 -0.33251,0.41406 -0.73828,0.41406 -0.40577,0 -1.00718,0.37396 -1.33593,0.83008 -0.32875,0.45611 -0.93017,0.82812 -1.33594,0.82812 -0.40577,0 -0.73633,0.18796 -0.73633,0.41602 0,0.22805 -0.37397,0.41406 -0.83008,0.41406 -0.45611,0 -0.82812,0.18601 -0.82812,0.41406 0,0.22806 -0.33251,0.41602 -0.73828,0.41602 -0.40577,0 -1.00719,0.372 -1.33594,0.82812 -0.32876,0.45611 -0.93017,0.83008 -1.33594,0.83008 -0.40576,0 -0.73633,0.186 -0.73633,0.41406 0,0.22805 -0.37396,0.41407 -0.83008,0.41407 -0.45611,0 -0.83007,0.18796 -0.83007,0.41601 0,0.22806 -0.37202,0.41406 -0.82813,0.41406 -0.45612,0 -0.83008,0.18601 -0.83008,0.41407 0,0.22806 -0.372,0.41601 -0.82812,0.41601 -0.45611,0 -0.83008,0.18601 -0.83008,0.41406 0,0.22805 -0.37398,0.41407 -0.83008,0.41407 -0.45612,0 -0.82812,0.186 -0.82812,0.41406 0,0.22805 -0.33252,0.41602 -0.73828,0.41602 -0.40577,0 -1.00719,0.37201 -1.33594,0.82812 -0.32875,0.45611 -0.93019,0.83008 -1.33594,0.83008 -0.40578,0 -0.73633,0.186 -0.73633,0.41406 0,0.22805 -0.37398,0.41406 -0.83008,0.41406 -0.45612,0 -0.82812,0.18797 -0.82812,0.41602 0,0.22805 -0.37396,0.41406 -0.83008,0.41406 -0.45611,0 -0.83008,0.18601 -0.83008,0.41406 0,0.22806 -0.37201,0.41602 -0.82812,0.41602 -0.45611,0 -0.83008,0.186 -0.83008,0.41406 0,0.22805 -0.33055,0.41406 -0.73633,0.41407 -0.40575,0 -1.00718,0.37396 -1.33594,0.83007 -0.32875,0.45612 -0.93016,0.82813 -1.33593,0.82813 -0.40576,0 -0.73828,0.18796 -0.73828,0.41601 0,0.22806 -0.37201,0.41407 -0.82813,0.41407 -0.4561,0 -0.83008,0.186 -0.83008,0.41406 0,0.22805 -0.37398,0.41601 -0.83008,0.41601 -0.45612,0 -0.82812,0.18602 -0.82812,0.41407 0,0.22806 -0.37397,0.41406 -0.83008,0.41406 -0.45611,0 -0.82812,0.18796 -0.82812,0.41602 0,0.22804 -0.37397,0.41406 -0.83008,0.41406 -0.45611,0 -0.83008,0.186 -0.83008,0.41406 0,0.22807 -0.51657,0.41406 -1.15039,0.41406 -0.67673,0 -1.40095,0.34308 -1.75195,0.83008 -0.32875,0.45611 -0.93017,0.83008 -1.33594,0.83008 -0.40576,0 -0.73633,0.186 -0.73633,0.41406 0,0.22806 -0.55997,0.41406 -1.24414,0.41406 -0.68417,0 -1.24414,0.18796 -1.24414,0.41602 0,0.22805 -0.37397,0.41406 -0.83008,0.41406 -0.45611,0 -0.82812,0.18601 -0.82812,0.41406 0,0.22805 -0.29398,0.41407 -0.65235,0.41407 -0.90826,0 -2.20649,1.32832 -1.52148,1.55664 0.28304,0.0943 0.51562,0.67424 0.51562,1.28906 0,0.64217 0.35172,1.37343 0.82813,1.7168 0.48698,0.35101 0.83008,1.07327 0.83008,1.75 0,0.63383 0.18601,1.15234 0.41406,1.15234 0.22806,0 0.41406,0.55997 0.41406,1.24414 0,0.68416 0.18796,1.24414 0.41602,1.24414 0.22806,0 0.41406,0.37203 0.41406,0.82813 0,0.45613 0.186,0.83008 0.41406,0.83008 0.22806,0 0.41602,0.372 0.41602,0.82812 0,0.45612 0.18601,0.83008 0.41406,0.83008 0.22806,0 0.41406,0.28891 0.41406,0.64062 0,0.35171 0.23446,0.90278 0.51953,1.22657 0.59678,0.67782 1.96875,0.82257 1.96875,0.20703 0,-0.22806 0.37396,-0.41602 0.83008,-0.41602 0.45611,0 0.82813,-0.186 0.82813,-0.41406 0,-0.22804 0.37396,-0.41406 0.83008,-0.41406 0.4561,0 0.82812,-0.18798 0.82812,-0.41602 0,-0.22806 0.74793,-0.41406 1.66016,-0.41406 0.91223,0 1.6582,-0.186 1.6582,-0.41406 0,-0.258 2.34872,-0.41602 6.21875,-0.41602 3.87005,0 6.2207,0.15802 6.2207,0.41602 0,0.23694 1.24375,0.41406 2.90235,0.41406 1.65858,0 2.90234,0.17712 2.90234,0.41406 0,0.22804 0.74598,0.41602 1.6582,0.41602 0.91222,0 1.65821,0.18602 1.65821,0.41406 0,0.23037 1.10612,0.41406 2.48828,0.41406 1.38215,0 2.48828,0.18567 2.48828,0.41602 0,0.25669 2.21107,0.41406 5.80469,0.41406 3.59361,0 5.80468,-0.15737 5.80468,-0.41406 0,-0.22806 0.55997,-0.41602 1.24414,-0.41602 0.68417,0 1.24414,-0.186 1.24414,-0.41406 0,-0.22804 0.37396,-0.41406 0.83008,-0.41406 0.45611,0 0.82813,-0.18798 0.82813,-0.41602 0,-0.22806 0.28668,-0.41406 0.63476,-0.41406 0.82285,0 4.3418,-3.5209 4.3418,-4.34375 0,-0.34808 0.186,-0.63281 0.41406,-0.63281 0.22806,0 0.41602,-0.37202 0.41602,-0.82813 0,-0.45611 0.186,-0.83008 0.41406,-0.83008 0.24879,0 0.41406,-1.6586 0.41406,-4.14648 0,-2.48789 -0.16527,-4.14649 -0.41406,-4.14649 -0.22806,0 -0.41406,-0.37201 -0.41406,-0.82812 0,-0.45611 -0.18796,-0.83008 -0.41602,-0.83008 -0.22806,0 -0.41406,-0.28704 -0.41406,-0.63672 0,-0.34969 -0.6469,-1.28167 -1.4375,-2.07226 -1.09772,-1.09773 -1.7835,-1.4375 -2.90234,-1.4375 -0.80579,0 -1.46485,-0.18602 -1.46485,-0.41407 0,-0.23036 -1.10613,-0.41601 -2.48828,-0.41601 -1.38216,0 -2.48828,0.18565 -2.48828,0.41601 0,0.22805 -0.47304,0.41407 -1.05078,0.41407 -1.16803,0 -3.92383,2.46512 -3.92383,3.50976 0,0.34968 -0.18795,0.63672 -0.41601,0.63672 -0.23036,0 -0.41407,1.10612 -0.41407,2.48828 0,1.38216 0.18371,2.48828 0.41407,2.48828 0.22806,0 0.41601,0.28818 0.41601,0.64063 0,0.35245 0.45781,1.09843 1.01758,1.6582 0.83589,0.83589 1.42791,1.01758 3.31641,1.01758 2.02297,0 2.29882,0.10049 2.29882,0.83008 0,0.78325 -0.27527,0.82812 -4.97461,0.82812 -3.04075,0 -4.97656,-0.16067 -4.97656,-0.41406 0,-0.22806 -0.372,-0.41406 -0.82812,-0.41406 -0.45611,0 -0.83008,-0.18796 -0.83008,-0.41602 0,-0.22806 -0.93393,-0.41406 -2.07422,-0.41406 -1.14028,0 -2.07227,-0.186 -2.07227,-0.41406 0,-0.26016 -2.62593,-0.41602 -7.04882,-0.41602 -4.42291,0 -7.04883,0.15586 -7.04883,0.41602 0,0.22806 -0.93393,0.41406 -2.07422,0.41406 -1.14028,0 -2.07227,0.186 -2.07227,0.41406 0,0.22806 -0.37395,0.41602 -0.83007,0.41602 -0.45612,0 -0.82813,0.186 -0.82813,0.41406 0,0.22806 -0.55998,0.41406 -1.24414,0.41406 -0.96751,0 -1.24414,-0.1831 -1.24414,-0.82812 0,-0.55287 0.27526,-0.83008 0.82812,-0.83008 0.4561,0 0.83008,-0.186 0.83008,-0.41406 0,-0.22805 0.37398,-0.41602 0.83008,-0.41602 0.45612,0 0.82813,-0.18602 0.82813,-0.41406 0,-0.22806 0.37395,-0.41406 0.83007,-0.41406 0.45611,0 0.82813,-0.18601 0.82813,-0.41407 0,-0.22806 0.37397,-0.41601 0.83008,-0.41601 0.45611,0 0.83007,-0.186 0.83007,-0.41406 0,-0.22805 0.37202,-0.41407 0.82813,-0.41407 0.45611,0 0.83008,-0.18796 0.83008,-0.41601 0,-0.22806 0.33056,-0.41406 0.73633,-0.41407 0.40577,0 1.00718,-0.37396 1.33593,-0.83007 0.32875,-0.45612 0.93017,-0.82813 1.33594,-0.82813 0.40576,0 0.73828,-0.18601 0.73828,-0.41406 0,-0.22806 0.51852,-0.41602 1.15235,-0.41602 0.67673,0 1.39898,-0.34112 1.75,-0.82812 0.32874,-0.45611 0.93018,-0.83008 1.33593,-0.83008 0.40578,0 0.73633,-0.18601 0.73633,-0.41406 0,-0.22806 0.37397,-0.41602 0.83008,-0.41602 0.45611,0 0.83008,-0.18599 0.83008,-0.41406 0,-0.22806 0.33056,-0.41406 0.73633,-0.41406 0.40577,0 1.00718,-0.37397 1.33593,-0.83008 0.32875,-0.45611 0.93018,-0.82813 1.33594,-0.82813 0.40577,0 0.73828,-0.18796 0.73828,-0.41601 0,-0.22806 0.51657,-0.41406 1.15039,-0.41406 0.67673,0 1.40095,-0.34309 1.75196,-0.83008 0.32876,-0.45612 0.93017,-0.82813 1.33593,-0.82813 0.40577,0 0.73633,-0.186 0.73633,-0.41406 0,-0.22805 0.37396,-0.41602 0.83008,-0.41601 0.45611,0 0.82812,-0.18602 0.82813,-0.41407 0,-0.22806 0.33251,-0.41406 0.73828,-0.41406 0.40577,0 1.00717,-0.37396 1.33593,-0.83008 0.32875,-0.45611 0.93018,-0.83008 1.33594,-0.83008 0.40576,0 0.73633,-0.18601 0.73633,-0.41406 0,-0.22806 0.37397,-0.41406 0.83008,-0.41406 0.45611,0 0.83008,-0.186 0.83008,-0.41406 0,-0.22806 0.37201,-0.41602 0.82812,-0.41602 0.45611,0 0.83008,-0.186 0.83008,-0.41406 0,-0.22806 0.37201,-0.41406 0.82812,-0.41406 0.45611,0 0.83008,-0.18797 0.83008,-0.41602 0,-0.22806 0.37398,-0.41406 0.83008,-0.41406 0.45613,0 0.82813,-0.18601 0.82812,-0.41407 0,-0.22805 0.33253,-0.41406 0.73829,-0.41406 0.40577,0 1.00717,-0.37397 1.33593,-0.83008 0.32874,-0.45611 0.93019,-0.83007 1.33594,-0.83007 0.40578,0 0.73633,-0.18602 0.73633,-0.41407 0,-0.22806 0.37397,-0.41406 0.83008,-0.41406 0.45611,0 0.82812,-0.18795 0.82812,-0.41601 0,-0.22805 0.37397,-0.41407 0.83008,-0.41407 0.45612,0 0.83008,-0.186 0.83008,-0.41406 0,-0.22806 0.372,-0.41406 0.82812,-0.41406 0.4561,0 0.83008,-0.18796 0.83008,-0.41602 0,-0.22805 0.37203,-0.41406 0.82813,-0.41406 0.45612,0 0.83007,-0.18601 0.83008,-0.41406 0,-0.22806 0.33056,-0.41602 0.73632,-0.41602 0.40577,0 1.00719,-0.37201 1.33594,-0.82812 0.32876,-0.45612 0.93018,-0.83008 1.33594,-0.83008 0.40578,0 0.73828,-0.186 0.73828,-0.41406 0,-0.22806 0.28818,-0.41407 0.64062,-0.41407 0.87741,0 3.01397,-2.16852 2.35352,-2.38867 -0.27859,-0.0929 -0.50586,-0.48628 -0.50586,-0.87304 0,-0.38677 -0.37396,-0.97204 -0.83008,-1.300789 -0.45611,-0.32875 -0.82812,-0.93016 -0.82812,-1.33593 0,-0.40577 -0.18797,-0.73633 -0.41602,-0.73633 -0.22805,0 -0.41406,-0.37397 -0.41406,-0.83008 0,-0.45611 -0.186,-0.82813 -0.41406,-0.82813 -0.22806,0 -0.41602,-0.33252 -0.41602,-0.73828 0,-0.40577 -0.37201,-1.00719 -0.82812,-1.33593 -0.45611,-0.32876 -0.83008,-0.93017 -0.83008,-1.33594 0,-0.40577 -0.18601,-0.73633 -0.41406,-0.73633 -0.22806,0 -0.41407,-0.37396 -0.41407,-0.83008 0,-0.45611 -0.18794,-0.83008 -0.41601,-0.83008 -0.22805,0 -0.41406,-0.372 -0.41406,-0.82812 0,-0.51856 -0.27697,-0.83008 -0.73829,-0.83008 -0.40576,0 -1.00718,0.37397 -1.33593,0.83008 -0.32875,0.45612 -0.88677,0.82812 -1.24219,0.82812 -0.35543,0 -0.91538,0.37397 -1.24414,0.83008 -0.32874,0.45612 -0.93018,0.83008 -1.33594,0.83008 -0.40577,0 -0.73828,0.186 -0.73828,0.41406 0,0.22805 -0.74597,0.41407 -1.6582,0.41407 -0.91223,0 -1.65821,0.186 -1.65821,0.41406 0,0.24879 -1.6586,0.41601 -4.14648,0.41601 -2.48788,0 -4.14649,-0.16722 -4.14649,-0.41601 0,-0.23036 -1.10612,-0.41406 -2.48828,-0.41406 -1.38215,0 -2.48828,-0.18372 -2.48828,-0.41407 0,-0.22806 -0.74598,-0.41406 -1.6582,-0.41406 -0.91222,0 -1.6582,-0.18795 -1.6582,-0.41602 0,-0.22805 -0.37397,-0.41406 -0.83008,-0.41406 -0.45612,0 -0.82813,-0.18601 -0.82813,-0.41406 0,-0.22806 -0.93393,-0.41602 -2.07422,-0.41602 -1.14028,0 -2.07226,-0.186 -2.07226,-0.41406 0,-0.22806 -0.93394,-0.41406 -2.07422,-0.41406 -1.14028,0 -2.07227,-0.18797 -2.07227,-0.41602 0,-0.24573 -1.52097,-0.41406 -3.73242,-0.41406 z"
           id="path4499"
           inkscape:connector-curvature="0" />
      </g>
      <g
         transform="matrix(1.720165,0,0,2.2140033,-0.6609953,-2.8913976)"
         id="g4646">
        <path
           style="fill:#000000"
           d="m 112.25717,3.2668847 c -1.23498,0 -2.03739,0.08297 -2.03739,0.21094 0,0.11615 -0.16635,0.21093 -0.37012,0.21093 -0.20378,0 -0.37184,0.09481 -0.37184,0.21094 0,0.11615 -0.41588,0.21289 -0.92531,0.21289 -0.50942,0 -0.92701,0.0948 -0.92701,0.21094 0,0.11614 -0.41588,0.21094 -0.92531,0.21094 -0.50943,0 -0.92702,0.0948 -0.92702,0.21093 0,0.11615 -0.31407,0.21094 -0.69912,0.21094 -0.48758,0 -0.78217,0.12777 -0.96814,0.42188 -0.20295,0.32093 -0.47866,0.42187 -1.15149,0.42187 -0.48694,0 -0.88589,0.09676 -0.88589,0.21289 0,0.11725 -0.4946,0.21094 -1.11209,0.21094 -0.61748,0 -1.110367,0.09363 -1.110367,0.21094 0,0.11614 -0.16635,0.21093 -0.370118,0.21093 -0.203776,0 -0.371837,0.09481 -0.371837,0.21094 0,0.11615 -0.249521,0.21094 -0.555181,0.21094 -0.305652,0 -0.55519,0.09481 -0.55519,0.21094 0,0.11735 -0.494584,0.21093 -1.112073,0.21093 -0.617489,0 -1.112082,0.09363 -1.112082,0.21094 0,0.11615 -0.415879,0.21094 -0.925305,0.21094 -0.509429,0 -0.927019,0.09676 -0.927019,0.21289 0,0.11615 -0.24952,0.21094 -0.555181,0.21094 -0.305652,0 -0.555181,0.09479 -0.555181,0.21094 0,0.11613 -0.251249,0.21093 -0.556901,0.21093 -0.30566,0 -0.555181,0.09481 -0.555181,0.21094 0,0.12065 -0.556164,0.21094 -1.297145,0.21094 -0.74099,0 -1.295426,0.09028 -1.295426,0.21093 0,0.12065 -0.556155,0.21094 -1.297145,0.21094 -0.740981,0 -1.297136,0.09028 -1.297136,0.21094 0,0.11615 -0.16635,0.2128903 -0.370127,0.2128903 -0.203768,0 -0.370118,0.0948 -0.370118,0.21094 0,0.11615 -0.131195,0.21094 -0.291299,0.21094 -0.37439,0 -0.820783,0.5088 -0.820783,0.93554 0,0.1825 -0.08317,0.33008 -0.185063,0.33008 -0.101902,0 -0.185063,0.19156 -0.185063,0.42383 0,0.23226 0.08317,0.42187 0.185063,0.42187 0.101902,0 0.185063,0.37922 0.185063,0.84375 0,0.46453 0.08317,0.84571 0.185064,0.84571 0.101901,0 0.185054,0.18961 0.185054,0.42187 0,0.23227 0.08317,0.42188 0.185063,0.42188 0.101902,0 0.185064,0.43395 0.185064,0.96484 0,0.9863 0.299203,1.56836 0.805359,1.56836 0.151611,0 0.324436,0.12045 0.383831,0.26562 0.08642,0.21116 0.129485,0.21116 0.215901,0 0.06861,-0.16754 0.508911,-0.26562 1.204614,-0.26562 0.607198,0 1.096658,-0.09396 1.096658,-0.21094 0,-0.11615 0.24953,-0.21094 0.555181,-0.21094 0.305661,10e-6 0.555182,-0.09479 0.555182,-0.21093 0,-0.11615 0.166349,-0.21094 0.370126,-0.21094 0.203768,0 0.371838,-0.09481 0.371838,-0.21094 0,-0.11615 0.249529,-0.21093 0.555181,-0.21093 0.30566,-10e-6 0.555181,-0.09481 0.555181,-0.21094 0,-0.11735 0.494593,-0.21094 1.112082,-0.21094 0.617489,0 1.112082,-0.09558 1.112082,-0.21289 0,-0.11615 0.16635,-0.21094 0.370117,-0.21094 0.203777,0 0.370127,-0.09481 0.370127,-0.21094 0,-0.11615 0.16635,-0.21093 0.370115,-0.21093 0.203768,0 0.370127,-0.0948 0.370127,-0.21094 0,-0.11615 0.334419,-0.21094 0.741955,-0.21094 0.407545,0 0.740245,-0.09481 0.740245,-0.21094 0,-0.11735 0.494593,-0.21093 1.112081,-0.21093 0.617489,0 1.112082,-0.09364 1.112082,-0.21094 0,-0.11615 0.3327,-0.21094 0.740245,-0.21094 0.40754,0 0.74024,-0.09676 0.74024,-0.21289 0,-0.11615 0.16806,-0.21094 0.37184,-0.21094 0.20377,0 0.37012,-0.0948 0.37012,-0.21093 0,-0.11615 0.16636,-0.21094 0.37013,-0.21094 0.20377,0 0.37011,-0.0948 0.37011,-0.21094 0,-0.12064 0.55617,-0.21094 1.29715,-0.21094 0.74099,0 1.29714,-0.09028 1.29714,-0.21093 0,-0.11615 0.31407,-0.21094 0.69912,-0.21094 0.48757,0 0.78216,-0.12972 0.96814,-0.42383 0.18415,-0.29122 0.47886,-0.42187 0.95101,-0.42187 0.37656,0 0.7193,-0.11595 0.7608,-0.25782 0.0483,-0.16489 0.2537,-0.0546 0.57062,0.30664 0.39207,0.4469 0.4952,0.76633 0.4952,1.52539 0,0.52787 -0.0832,0.96094 -0.18506,0.96094 -0.1019,0 -0.18506,0.35799 -0.18506,0.79688 0,0.55576 -0.11209,0.88958 -0.37012,1.10156 -0.20377,0.16741 -0.37013,0.47501 -0.37013,0.68164 0,0.20663 -0.0832,0.375 -0.18505,0.375 -0.1019,0 -0.18507,0.47598 -0.18507,1.05664 0,0.58066 -0.0849,1.05469 -0.18677,1.05469 -0.1019,0 -0.18506,0.35994 -0.18506,0.79883 0,0.55576 -0.11209,0.88958 -0.37012,1.10156 -0.21757,0.17874 -0.37013,0.54601 -0.37013,0.89062 0,0.32276 -0.0832,0.58789 -0.18506,0.58789 -0.1019,0 -0.18506,0.37923 -0.18506,0.84375 0,0.46453 -0.0832,0.84571 -0.18506,0.84571 -0.1019,0 -0.18506,0.35798 -0.18506,0.79687 0,0.55576 -0.11381,0.89154 -0.37184,1.10352 -0.21757,0.17874 -0.37012,0.54601 -0.37012,0.89062 0,0.32276 -0.0832,0.58594 -0.18506,0.58594 -0.10189,0 -0.18506,0.38117 -0.18506,0.8457 0,0.46453 -0.0832,0.84375 -0.18507,0.84375 -0.1019,0 -0.18505,0.35994 -0.18505,0.79883 0,0.55576 -0.11381,0.88958 -0.37184,1.10156 -0.21757,0.17874 -0.37013,0.54797 -0.37013,0.89258 0,0.32276 -0.0832,0.58594 -0.18505,0.58594 -0.1019,0 -0.18506,0.37923 -0.18506,0.84375 0,0.46453 -0.0832,0.8457 -0.18507,0.8457 -0.10189,0 -0.18506,0.28442 -0.18506,0.63282 0,0.34839 -0.0832,0.63476 -0.18506,0.63476 -0.1019,0 -0.18506,0.18962 -0.18506,0.42188 0,0.23226 -0.0849,0.42187 -0.18677,0.42187 -0.1019,0 -0.18507,0.28441 -0.18507,0.63281 0,0.34839 -0.0832,0.63477 -0.18506,0.63477 -0.1019,0 -0.18505,0.37922 -0.18505,0.84375 0,0.46453 -0.0832,0.8457 -0.18507,0.8457 -0.1019,0 -0.18506,0.26318 -0.18506,0.58594 0,0.34461 -0.15256,0.71188 -0.37012,0.89062 -0.21757,0.17874 -0.37184,0.54797 -0.37184,0.89258 0,0.32275 -0.0832,0.58594 -0.18506,0.58594 -0.1019,0 -0.18506,0.37922 -0.18506,0.84375 0,0.46452 -0.0832,0.8457 -0.18506,0.8457 -0.1019,0 -0.18506,0.16837 -0.18506,0.375 0,0.20662 -0.16635,0.51228 -0.370127,0.67969 -0.203768,0.1674 -0.370118,0.45378 -0.370118,0.63477 0,0.18099 -0.168069,0.4654 -0.371837,0.63281 -0.203777,0.16741 -0.370127,0.43298 -0.370127,0.58984 0,0.38667 -0.463728,0.88868 -0.820774,0.88868 -0.160103,-1e-5 -0.289588,0.0948 -0.289588,0.21093 0,0.13815 -3.493872,0.21094 -10.10982,0.21094 -10.966102,0 -10.639298,-0.03506 -10.639298,1.14648 0,0.29862 -0.08317,0.54297 -0.185063,0.54297 -0.101893,0 -0.185063,0.18962 -0.185063,0.42188 0,0.23226 -0.08317,0.42187 -0.185055,0.42187 -0.101901,0 -0.185063,0.19156 -0.185063,0.42383 0,0.23226 -0.08317,0.42188 -0.185063,0.42188 -0.102955,0 -0.185064,0.56179 -0.185064,1.26562 0,0.70383 -0.08212,1.26758 -0.185054,1.26758 -0.36746,0 -0.196407,1.47928 0.231324,2 0.414678,0.50482 0.436348,0.50858 4.444889,0.52148 2.570137,0.0082 4.03022,-0.06453 4.03022,-0.19922 0,-0.13904 5.06228,-0.21093 14.818599,-0.21093 9.756322,0 14.820312,0.07193 14.820312,0.21093 0,0.13525 1.70339,0.21094 4.73791,0.21094 5.13106,0 5.26567,-0.02773 5.26567,-1.14453 0,-0.29862 0.0832,-0.54297 0.18506,-0.54297 0.10189,0 0.18507,-0.38117 0.18507,-0.8457 0,-0.46453 0.0832,-0.84375 0.18505,-0.84375 0.1019,0 0.18506,-0.28638 0.18506,-0.63477 0,-0.3484 0.0832,-0.63281 0.18507,-0.63281 0.1019,0 0.18677,-0.1896 0.18677,-0.42187 0,-0.23226 0.0832,-0.42188 0.18506,-0.42188 0.10191,0 0.18506,-0.38117 0.18506,-0.8457 0,-0.46453 0.0832,-0.84375 0.18506,-0.84375 0.27513,0 0.22478,-0.62075 -0.0788,-0.9668 -0.22143,-0.25244 -1.61256,-0.30078 -8.52138,-0.30078 -5.38097,0 -8.2575,-0.07333 -8.2575,-0.21094 0,-0.11615 -0.16635,-0.21093 -0.37012,-0.21093 -0.34303,0 -0.37012,-0.14082 -0.37012,-1.9004 0,-1.12613 0.0753,-1.90039 0.18506,-1.90039 0.1019,0 0.18506,-0.1896 0.18506,-0.42187 0,-0.23226 0.0832,-0.42383 0.18506,-0.42383 0.1019,0 0.18506,-0.18961 0.18506,-0.42187 0,-0.23227 0.0832,-0.42188 0.18507,-0.42188 0.1019,0 0.18505,-0.47598 0.18505,-1.05664 0,-0.58066 0.0832,-1.05469 0.18506,-1.05469 0.10191,0 0.18507,-0.47598 0.18507,-1.05664 0,-0.58065 0.0848,-1.05469 0.18677,-1.05469 0.1019,0 0.18507,-0.1896 0.18507,-0.42187 0,-0.23226 0.0832,-0.42383 0.18505,-0.42383 0.1019,0 0.18506,-0.18961 0.18506,-0.42187 0,-0.23227 0.0832,-0.42188 0.18507,-0.42188 0.1019,0 0.18506,-0.37922 0.18506,-0.84375 0,-0.46453 0.0832,-0.8457 0.18505,-0.8457 0.10191,0 0.18507,-0.47403 0.18507,-1.05469 0,-0.58066 0.0832,-1.05664 0.18506,-1.05664 0.1019,0 0.18677,-0.18962 0.18677,-0.42187 0,-0.23227 0.0832,-0.42188 0.18507,-0.42188 0.1019,0 0.18505,-0.19156 0.18505,-0.42383 0,-0.23226 0.0832,-0.42187 0.18507,-0.42187 0.1019,0 0.18506,-0.37922 0.18506,-0.84375 0,-0.46453 0.0832,-0.84571 0.18506,-0.84571 0.1019,0 0.18506,-0.45279 0.18506,-1.00781 0,-0.76691 0.0886,-1.08314 0.37012,-1.31445 0.20377,-0.16741 0.37184,-0.47307 0.37184,-0.67969 0,-0.20663 0.0832,-0.375 0.18506,-0.375 0.1019,0 0.18506,-0.38117 0.18506,-0.8457 0,-0.46452 0.0832,-0.84375 0.18506,-0.84375 0.1019,0 0.18507,-0.45475 0.18507,-1.00977 0,-0.76691 0.0885,-1.08118 0.37011,-1.3125 0.20377,-0.16741 0.37013,-0.47501 0.37013,-0.68164 0,-0.20663 0.0849,-0.375 0.18677,-0.375 0.10191,0 0.18507,-0.37922 0.18507,-0.84375 0,-0.46453 0.0832,-0.8457 0.18505,-0.8457 0.10189,0 0.18507,-0.45475 0.18507,-1.00977 0,-0.76691 0.0886,-1.08119 0.37012,-1.3125 0.20378,-0.16741 0.37012,-0.47307 0.37012,-0.67969 0,-0.20663 0.0832,-0.37695 0.18506,-0.37695 0.1019,0 0.18678,-0.47403 0.18678,-1.05469 0,-0.58066 0.0832,-1.05664 0.18506,-1.05664 0.1019,0 0.18506,-0.26317 0.18506,-0.58593 0,-0.34461 0.15256,-0.71189 0.37012,-0.89063 0.20378,-0.16741 0.37012,-0.47502 0.37012,-0.68164 0,-0.20663 0.0832,-0.375 0.18506,-0.375 0.10296,0 0.18507,-0.56375 0.18507,-1.2675803 0,-0.70383 0.0839,-1.26562 0.18677,-1.26562 0.1019,0 0.18506,-0.15222 0.18506,-0.33789 0,-0.18567 0.24953,-0.60424 0.55518,-0.92969 0.44566,-0.47451 0.55519,-0.76655 0.55519,-1.47266 0,-1.26975 -0.278,-1.48242 -1.93115,-1.48242 -0.81155,0 -1.40338,-0.09072 -1.40338,-0.21289 0,-0.11615 -0.41589,-0.21094 -0.92531,-0.21094 -0.50943,0 -0.92702,-0.0948 -0.92702,-0.21093 0,-0.12795 -0.8024,-0.21094 -2.03738,-0.21094 z"
           id="path4636"
           inkscape:connector-curvature="0" />
        <path
           style="fill:#000000"
           d="m 56.03955,2.0392224 c -1.33209,0 -2.219971,0.088585 -2.219971,0.2217942 0,0.1221266 -0.199377,0.2217836 -0.443588,0.2217836 -0.244222,0 -0.445639,0.099689 -0.445639,0.2217941 0,0.1221267 -0.177034,0.2217942 -0.394296,0.2217942 -0.217252,0 -0.538629,0.1993666 -0.714654,0.4435778 -0.176013,0.2442217 -0.458098,0.4456386 -0.626363,0.4456386 -0.168264,0 -0.586039,0.2990446 -0.928236,0.6653719 -0.342196,0.3663168 -0.838998,0.6653825 -1.104849,0.6653825 -0.273704,0 -0.85375,0.386347 -1.336905,0.8892164 -0.469286,0.4884329 -1.010702,0.8871659 -1.203434,0.8871659 -0.192731,0 -0.351165,0.099689 -0.351165,0.2217942 0,0.1221266 -0.160052,0.2217836 -0.355276,0.2217836 -0.195224,0 -0.633282,0.3011055 -0.975478,0.6674328 -0.342197,0.3663273 -0.841049,0.6653719 -1.1069,0.6653719 -0.273715,0 -0.85375,0.3842967 -1.336905,0.8871661 -0.469286,0.4884328 -1.010691,0.8892268 -1.203433,0.8892268 -0.192732,0 -0.349115,0.09967 -0.349115,0.221784 0,0.122126 -0.179084,0.221794 -0.396347,0.221794 -0.217252,0 -0.53864,0.199377 -0.714664,0.443588 -0.176024,0.244222 -0.497402,0.443578 -0.714664,0.443578 -0.217252,0 -0.396347,0.101739 -0.396347,0.223844 0,0.122127 -0.158002,0.221795 -0.353226,0.221795 -0.195224,0 -0.635321,0.299044 -0.977517,0.665372 -0.342197,0.366316 -0.759972,0.665371 -0.928247,0.665371 -0.168264,0 -0.450328,0.201428 -0.626352,0.445639 -0.176025,0.244211 -0.475069,0.443588 -0.665372,0.443588 -0.190303,0 -0.491419,0.199356 -0.667433,0.443578 -0.187937,0.260751 -0.574106,0.443588 -0.936448,0.443588 -0.339368,0 -0.61609,0.09968 -0.61609,0.221784 0,0.122127 -0.160053,0.221794 -0.355276,0.221794 -0.195224,0 -0.635332,0.301106 -0.977529,0.667433 -0.342196,0.366327 -0.782304,0.665372 -0.977528,0.665372 -0.195224,0 -0.355276,0.09968 -0.355276,0.221794 0,0.122116 -0.157992,0.221794 -0.353216,0.221794 -0.195224,0 -0.635332,0.301106 -0.977528,0.667423 -0.342197,0.366327 -0.782305,0.665371 -0.977528,0.665371 -0.195224,0 -0.355277,0.09969 -0.355277,0.221795 0,0.122126 -0.199367,0.221794 -0.443578,0.221794 -0.244211,0 -0.443588,0.09968 -0.443588,0.221794 0,0.122116 -0.179095,0.221784 -0.396346,0.221784 -0.217263,0 -0.538651,0.201427 -0.714665,0.445638 -0.187937,0.260751 -0.574105,0.443588 -0.936447,0.443588 -0.339368,0 -0.618151,0.09968 -0.618151,0.221784 0,0.122127 -0.160053,0.221794 -0.355277,0.221794 -0.195224,0 -0.633271,0.299055 -0.975467,0.665372 -0.342197,0.366327 -0.782305,0.667433 -0.977529,0.667433 -0.195223,0 -0.355276,0.09969 -0.355276,0.221794 0,0.122127 -0.177034,0.221784 -0.394296,0.221784 -0.217252,0 -0.54069,0.199366 -0.716715,0.443588 -0.176013,0.244211 -0.497401,0.443578 -0.714664,0.443578 -0.217252,0 -0.394296,0.09969 -0.394296,0.221794 0,0.122127 -0.177033,0.221794 -0.394296,0.221794 -0.217252,0 -0.54069,0.201428 -0.716714,0.445639 -0.176014,0.244211 -0.47508,0.443578 -0.665372,0.443578 -0.190303,0 -0.489348,0.199366 -0.665372,0.443588 -0.187937,0.26075 -0.576167,0.443578 -0.938509,0.443578 -0.339368,0 -0.61609,0.09969 -0.61609,0.221794 0,0.122126 -0.199367,0.223844 -0.443578,0.223844 -0.244222,0 -0.443588,0.09969 -0.443588,0.221794 0,0.122127 -0.179095,0.221795 -0.396347,0.221795 -0.217262,0 -0.53865,0.199356 -0.714664,0.443577 -0.176024,0.244211 -0.497412,0.443589 -0.714664,0.443589 -0.217262,0 -0.396346,0.09967 -0.396346,0.221783 0,0.122116 -0.177044,0.221794 -0.394296,0.221794 -0.217263,0 -0.538651,0.201428 -0.714664,0.445639 -0.176025,0.244222 -0.497402,0.443578 -0.714654,0.443578 -0.217263,0 -0.3963572,0.09969 -0.3963572,0.221794 0,0.122127 -0.199356,0.221794 -0.443578,0.221794 -0.244211,0 -0.443588,0.09969 -0.443588,0.221794 0,0.122127 -0.1770342,0.221784 -0.3942962,0.221784 -0.217252,0 -0.54069,0.201427 -0.716715,0.445638 -0.176024,0.244222 -0.4974012,0.443589 -0.7146532,0.443589 -0.217263,0 -0.394296,0.09968 -0.394296,0.221783 0,0.122127 -0.199377,0.221795 -0.4435892,0.221795 -0.244221,0 -0.445638,0.09969 -0.445638,0.221794 0,0.122126 -0.276733,0.221794 -0.6160902,0.221794 -0.362343,0 -0.748511,0.182827 -0.936448,0.443578 -0.1760245,0.244211 -0.4974125,0.445638 -0.7146644,0.445638 -0.2172624,0 -0.3963464,0.09969 -0.3963464,0.221794 0,0.122127 -0.1993771,0.221784 -0.4435883,0.221784 -0.2442217,0 -0.4435777,0.09969 -0.4435777,0.221794 0,0.122127 -0.2787726,0.221794 -0.6181406,0.221794 -0.3623423,0 -0.74852096,0.182838 -0.93645826,0.443589 -0.1760138,0.244211 -0.4973913,0.443577 -0.7146537,0.443577 -0.21725176,0 -0.39635686,0.101739 -0.39635686,0.223845 0,0.122127 -0.199356,0.221794 -0.4435777,0.221794 -0.24421118,0 -0.44358828,0.09969 -0.44358828,0.221794 0,0.122127 -0.2569233,0.221784 -0.5709092,0.221784 -0.728312,0 -1.2054733,0.477172 -1.2054733,1.205484 0,0.313986 -0.099678,0.570909 -0.2217942,0.570909 -0.1356904,0 -0.2217941,1.035453 -0.2217941,2.663548 0,1.628107 -0.086114,2.663549 -0.2217837,2.663549 -0.1233883,0 -0.2217941,0.592758 -0.2217941,1.332805 0,1.184076 0.048893,1.332804 0.4435778,1.332804 0.2442217,0 0.4435883,0.09969 0.4435883,0.221795 0,0.14652 7.3681727,0.221783 21.6616367,0.221783 18.477889,0 21.709424,0.04573 21.979953,0.316257 0.358599,0.35861 0.435124,1.903714 0.09446,1.903714 -0.122127,0 -0.221794,0.199377 -0.221794,0.443588 0,0.244211 -0.09968,0.443578 -0.221784,0.443578 -0.122126,0 -0.221794,0.201417 -0.221794,0.445639 0,0.244211 -0.09969,0.443577 -0.221794,0.443577 -0.122127,1.1e-5 -0.221784,0.199378 -0.221784,0.443589 -1e-5,0.244221 -0.09968,0.443588 -0.221794,0.443588 -0.123283,-1.1e-5 -0.221794,0.592748 -0.221794,1.332794 0,0.740047 -0.09846,1.332805 -0.221794,1.332805 -0.122127,0 -0.223845,0.199366 -0.223845,0.443588 0,0.244211 -0.09969,0.443578 -0.221794,0.443578 -0.122126,0 -0.221783,0.199377 -0.221783,0.443588 0,0.244222 -0.09969,0.443578 -0.221794,0.443578 -0.122127,0 -0.221795,0.201417 -0.221795,0.445639 0,0.244211 -0.09969,0.443577 -0.221794,0.443577 -0.31878,0 -0.274346,1.512699 0.05545,1.887291 0.220627,0.250572 1.130557,0.31816 4.439942,0.324468 2.632783,0.0054 4.162693,-0.07316 4.162693,-0.213582 0,-0.122127 0.157224,-0.221784 0.349115,-0.221784 0.70457,0 0.98369,-0.594629 0.98369,-2.0947 0,-0.824615 0.09631,-1.458075 0.221794,-1.458075 0.122116,0 0.221784,-0.500472 0.221784,-1.111011 0,-0.610538 0.09969,-1.10896 0.221794,-1.10896 0.122126,0 0.221794,-0.199366 0.221794,-0.443578 0,-0.244221 0.09969,-0.445638 0.221784,-0.445638 0.122137,0 0.221794,-0.199377 0.221794,-0.443578 0,-0.244211 0.101739,-0.443588 0.223844,-0.443588 0.122127,0 0.221794,-0.498422 0.221794,-1.108961 0,-0.610538 0.09968,-1.11101 0.221795,-1.11101 0.122116,0 0.221794,-0.356591 0.221794,-0.792693 0,-1.451735 -0.133504,-1.427278 7.764751,-1.427278 l 7.130186,0 0.544213,-0.544202 c 0.299717,-0.299718 0.546263,-0.80019 0.546263,-1.111021 0,-0.310821 0.09969,-0.564737 0.221794,-0.564737 0.122127,0 0.221794,-0.199377 0.221794,-0.443588 0,-0.244222 0.09967,-0.445639 0.221784,-0.445639 0.122116,0 0.221794,-0.299045 0.221794,-0.665372 0,-0.366317 0.09969,-0.665372 0.221794,-0.665372 0.122127,0 0.221794,-0.392487 0.221794,-0.870742 0,-0.47856 0.124503,-0.926775 0.277238,-0.998063 0.222015,-0.1036 0.222015,-0.155185 0,-0.258753 -0.15264,-0.07123 -0.277238,-0.377988 -0.277238,-0.681806 0,-1.13225 -0.24909,-1.186989 -5.423631,-1.186989 -3.044765,0 -4.789057,0.08064 -4.789057,0.221783 1.1e-5,0.129487 -0.740319,0.221795 -1.776382,0.221795 l -1.774332,0 0,-0.665372 c 0,-0.366317 -0.09969,-0.667433 -0.221794,-0.667433 -0.122127,0 -0.223845,-0.199367 -0.223845,-0.443578 0,-0.244211 0.101739,-0.443588 0.223845,-0.443588 0.122126,0 0.221794,-0.299045 0.221794,-0.665372 0,-0.366317 0.09968,-0.667422 0.221794,-0.667422 0.122126,-1.1e-5 0.221794,-0.199377 0.221794,-0.443589 0,-0.244211 0.09968,-0.443588 0.221784,-0.443588 0.122126,0 0.221794,-0.199356 0.221794,-0.443578 0,-0.244211 0.09969,-0.445638 0.221794,-0.445638 0.123388,0 0.221794,-0.590698 0.221794,-1.330744 0,-0.740047 0.09844,-1.332805 0.221784,-1.332805 0.122126,0 0.221794,-0.276722 0.221794,-0.61609 0,-0.362342 0.184888,-0.750572 0.445638,-0.938509 0.244212,-0.176024 0.443589,-0.497402 0.443589,-0.714653 0,-0.217263 0.09968,-0.394296 0.221783,-0.394296 0.123389,0 0.221795,-0.592759 0.221795,-1.332805 0,-0.740047 0.09846,-1.332805 0.221794,-1.332805 0.122126,0 0.221783,-0.398733 0.221783,-0.887166 0,-0.488433 0.09969,-0.887166 0.221794,-0.887166 0.122127,0 0.223845,-0.201417 0.223845,-0.445639 0,-0.244211 0.09969,-0.443577 0.221794,-0.443577 0.122127,0 0.221794,-0.299066 0.221794,-0.665383 0,-0.366327 0.09968,-0.665372 0.221794,-0.665372 0.122116,0 0.221784,-0.301105 0.221784,-0.667422 0,-0.366327 0.09969,-0.665383 0.221794,-0.665383 0.122127,0 0.221794,-0.278772 0.221794,-0.61814 0,-0.362342 0.182827,-0.748511 0.443578,-0.936448 0.244211,-0.176024 0.445639,-0.497412 0.445639,-0.714664 0,-0.217262 0.09969,-0.394296 0.221794,-0.394296 0.123283,0 0.221794,-0.592758 0.221794,-1.332805 0,-0.740046 0.09844,-1.332805 0.221784,-1.332805 0.122116,0 0.221794,-0.276711 0.221794,-0.616079 0,-0.362342 0.182837,-0.748521 0.443588,-0.936459 0.244222,-0.176024 0.445628,-0.499452 0.445628,-0.716714 0,-0.217262 0.09969,-0.394296 0.221794,-0.394296 0.122127,0 0.221794,-0.398733 0.221794,-0.887166 0,-0.4884331 0.09968,-0.8892166 0.221795,-0.8892166 0.122126,0 0.221783,-0.3987331 0.221783,-0.887166 0,-0.4884329 0.09969,-0.889227 0.221794,-0.889227 0.122127,0 0.221795,-0.199356 0.221795,-0.4435778 0,-0.2442111 0.09969,-0.4435881 0.221794,-0.4435881 0.122126,0 0.221783,-0.1993666 0.221783,-0.4435778 0,-0.2442217 0.09969,-0.4456387 0.221794,-0.4456387 0.122127,0 0.223845,-0.3536152 0.223845,-0.7865417 0,-0.9510105 -0.816698,-1.8770068 -1.655223,-1.8770068 -0.310821,0 -0.564748,-0.099678 -0.564748,-0.2217942 0,-0.1268476 -0.666539,-0.2217941 -1.554588,-0.2217941 -0.88806,0 -1.554599,-0.094925 -1.554599,-0.2217836 0,-0.133167 -0.887892,-0.2217942 -2.21996,-0.2217942 z m -4.784956,8.8798726 0.788592,0 0,1.11101 c 0,0.610539 -0.09967,1.108961 -0.221784,1.108961 -0.122116,0 -0.221794,0.299055 -0.221794,0.665372 0,0.366327 -0.09969,0.667432 -0.221794,0.667432 -0.122442,0 -0.221794,0.576146 -0.221794,1.283513 0,1.028387 -0.08974,1.345317 -0.445628,1.60183 -0.244211,0.176014 -0.443589,0.497402 -0.443589,0.714654 0,0.217262 -0.09968,0.396357 -0.221794,0.396357 -0.122126,0 -0.221783,0.498421 -0.221783,1.10896 0,0.610528 -0.09969,1.11101 -0.221794,1.11101 -0.122127,0 -0.221795,0.376401 -0.221795,0.837874 0,0.584358 -0.136394,0.937415 -0.445638,1.160303 -0.244222,0.176024 -0.443578,0.497391 -0.443578,0.714654 0,0.217262 -0.09969,0.394296 -0.221794,0.394296 -0.122127,0 -0.221794,0.500482 -0.221794,1.11101 0,0.610539 -0.09967,1.108961 -0.221784,1.108961 -0.122137,0 -0.221794,0.500472 -0.221794,1.11101 0,0.610539 -0.09969,1.10896 -0.221794,1.10896 -0.122127,0 -0.221794,0.201428 -0.221794,0.445639 0,0.244222 -0.101739,0.443578 -0.223845,0.443578 -0.122127,0 -0.221794,0.199366 -0.221794,0.443588 0,0.244211 -0.09968,0.443578 -0.221784,0.443578 -0.122126,0 -0.221794,0.500472 -0.221794,1.11101 0,0.610539 -0.09969,1.108961 -0.221794,1.108961 -0.122127,0 -0.221794,0.301116 -0.221794,0.667432 0,0.366328 -0.09967,0.665372 -0.221784,0.665372 -0.122116,0 -0.221794,0.199367 -0.221794,0.443589 0,0.244211 -0.09969,0.443577 -0.221794,0.443577 -0.122127,0 -0.221794,0.201428 -0.221794,0.445639 0,0.244222 -0.101739,0.443578 -0.223845,0.443578 -0.122126,0 -0.221783,0.299055 -0.221783,0.665382 0,0.366317 -0.09969,0.667423 -0.221794,0.667423 -0.122127,0 -0.221795,0.155184 -0.221795,0.347064 0,0.524077 -0.563054,0.98369 -1.205473,0.98369 -0.313986,0 -0.570909,0.09968 -0.570909,0.221784 0,0.145994 -5.550542,0.221794 -16.207207,0.221794 -10.656665,0 -16.2072182,-0.07582 -16.2072182,-0.221794 0,-0.122127 -0.199367,-0.221784 -0.443578,-0.221784 -0.244222,0 -0.443588,-0.05197 -0.443588,-0.117059 0,-0.250478 1.5531792,-1.659334 1.8297862,-1.659334 0.160273,0 0.435955,-0.199367 0.611979,-0.443578 0.176014,-0.244211 0.497402,-0.443588 0.714664,-0.443588 0.217252,0 0.396346,-0.09968 0.396346,-0.221784 0,-0.122126 0.299045,-0.221794 0.665372,-0.221794 0.366317,0 0.665372,-0.09968 0.665372,-0.221794 0,-0.122116 0.179095,-0.223845 0.396357,-0.223845 0.217262,0 0.53864,-0.199377 0.714664,-0.443577 0.176025,-0.244222 0.497392,-0.443589 0.714654,-0.443589 0.217262,0 0.394296,-0.09969 0.394296,-0.221794 0,-0.122126 0.259741,-0.221794 0.577071,-0.221794 0.354803,1.1e-5 0.816718,-0.257838 1.199322,-0.667422 0.342196,-0.366317 0.782294,-0.665372 0.977518,-0.665372 0.195224,0 0.355276,-0.09969 0.355276,-0.221794 0,-0.122127 0.199367,-0.221794 0.443588,-0.221794 0.244212,0 0.443578,-0.09969 0.443578,-0.221795 0,-0.122126 0.179105,-0.221783 0.396357,-0.221783 0.217263,0 0.53863,-0.199367 0.714654,-0.443589 0.176024,-0.244211 0.497412,-0.445638 0.714664,-0.445638 0.217262,0 0.394296,-0.09968 0.394296,-0.221784 0,-0.122126 0.301116,-0.221794 0.667433,-0.221794 0.366327,0 0.665372,-0.09969 0.665372,-0.221794 0,-0.122127 0.160052,-0.221794 0.355276,-0.221794 0.195224,0 0.635332,-0.299045 0.977528,-0.665372 0.342197,-0.366317 0.840619,-0.667422 1.108961,-0.667422 0.268342,0 0.768814,-0.299056 1.11101,-0.665383 0.342197,-0.366327 0.782294,-0.665372 0.977518,-0.665372 0.195224,0 0.355276,-0.101728 0.355276,-0.223844 0,-0.122127 0.257691,-0.221794 0.575021,-0.221794 0.354803,0 0.816708,-0.255799 1.199312,-0.665372 0.342196,-0.366328 0.759971,-0.665372 0.928246,-0.665372 0.168265,0 0.450328,-0.201417 0.626352,-0.445639 0.176025,-0.244211 0.475069,-0.443588 0.665372,-0.443588 0.190303,0 0.491409,-0.199367 0.667433,-0.443578 0.176014,-0.244222 0.497402,-0.443588 0.714664,-0.443588 0.217252,0 0.394296,-0.09968 0.394296,-0.221784 0,-0.122127 0.160053,-0.221794 0.355277,-0.221794 0.195224,0 0.635321,-0.301106 0.977518,-0.667433 0.342196,-0.366317 0.782304,-0.665372 0.977528,-0.665372 0.195224,0 0.355276,-0.09969 0.355276,-0.221794 0,-0.122127 0.256072,-0.221784 0.570909,-0.221784 0.377631,0 0.864392,-0.303387 1.427268,-0.889226 0.469275,-0.488423 0.969327,-0.887167 1.113071,-0.887167 0.143734,0 0.542909,-0.299044 0.885106,-0.665371 0.342196,-0.366317 0.740929,-0.667423 0.887166,-0.667423 0.146236,0 0.544969,-0.299065 0.887166,-0.665382 0.342196,-0.366327 0.759971,-0.665372 0.928246,-0.665372 0.168265,0 0.450328,-0.201417 0.626353,-0.445639 0.176024,-0.244211 0.458077,-0.443578 0.626352,-0.443578 0.168264,0 0.58604,-0.299065 0.928236,-0.665382 0.342196,-0.366327 0.782304,-0.665372 0.977528,-0.665372 0.195224,0 0.355277,-0.101739 0.355277,-0.223844 0,-0.122127 0.155089,-0.221795 0.345014,-0.221795 0.189924,0 0.93404,-0.598099 1.653162,-1.330743 1.112241,-1.133155 1.425281,-1.332805 2.096751,-1.332805 z"
           id="path4638"
           inkscape:connector-curvature="0" />
      </g>
    </g>
    <g
       inkscape:export-ydpi="216"
       inkscape:export-xdpi="216"
       inkscape:export-filename="/Users/hlt/Desktop/g4758.png"
       id="g4758"
       transform="translate(42.324881,148.16244)">
      <text
         xml:space="preserve"
         style="font-style:normal;font-weight:normal;font-size:35.40159225px;line-height:125%;font-family:sans-serif;letter-spacing:0px;word-spacing:0px;fill:#000000;fill-opacity:1;stroke:none;stroke-width:1px;stroke-linecap:butt;stroke-linejoin:miter;stroke-opacity:1"
         x="-2.3588436"
         y="162.56886"
         id="text4658"
         sodipodi:linespacing="125%"><tspan
           sodipodi:role="line"
           id="tspan4660"
           x="-2.3588436"
           y="162.56886"
           style="font-style:italic;font-variant:normal;font-weight:normal;font-stretch:normal;font-size:35.40159225px;line-height:125%;font-family:'Operator Mono';-inkscape-font-specification:'Operator Mono, Italic';text-align:start;writing-mode:lr-tb;text-anchor:start">(forty-one)</tspan></text>
      <text
         xml:space="preserve"
         style="font-style:normal;font-weight:normal;font-size:33.86879349px;line-height:125%;font-family:sans-serif;letter-spacing:0px;word-spacing:0px;fill:#000000;fill-opacity:1;stroke:none;stroke-width:1px;stroke-linecap:butt;stroke-linejoin:miter;stroke-opacity:1"
         x="262.647"
         y="162.88925"
         id="text4715"
         sodipodi:linespacing="125%"><tspan
           sodipodi:role="line"
           id="tspan4717"
           x="262.647"
           y="162.88925"
           style="font-style:italic;font-variant:normal;font-weight:normal;font-stretch:normal;font-size:33.86879349px;line-height:125%;font-family:'Operator Mono';-inkscape-font-specification:'Operator Mono, Italic';text-align:start;writing-mode:lr-tb;text-anchor:start">(hertz)</tspan></text>
    </g>
  </g>
</svg>
