<?xml version="1.0" encoding="UTF-8" standalone="no"?>
<!-- Created with Inkscape (http://www.inkscape.org/) -->

<svg
   xmlns:dc="http://purl.org/dc/elements/1.1/"
   xmlns:cc="http://creativecommons.org/ns#"
   xmlns:rdf="http://www.w3.org/1999/02/22-rdf-syntax-ns#"
   xmlns:svg="http://www.w3.org/2000/svg"
   xmlns="http://www.w3.org/2000/svg"
   xmlns:sodipodi="http://sodipodi.sourceforge.net/DTD/sodipodi-0.dtd"
   xmlns:inkscape="http://www.inkscape.org/namespaces/inkscape"
   width="210mm"
   height="297mm"
   viewBox="0 0 744.09448819 1052.3622047"
   id="svg2"
   version="1.1"
   inkscape:version="0.91 r13725"
   sodipodi:docname="compsoc-logo-min-src.svg">
  <defs
     id="defs4" />
  <sodipodi:namedview
     id="base"
     pagecolor="#ffffff"
     bordercolor="#666666"
     borderopacity="1.0"
     inkscape:pageopacity="0.0"
     inkscape:pageshadow="2"
     inkscape:zoom="5.6"
     inkscape:cx="37.01584"
     inkscape:cy="1016.0883"
     inkscape:document-units="px"
     inkscape:current-layer="layer1"
     showgrid="false"
     inkscape:window-width="1880"
     inkscape:window-height="1156"
     inkscape:window-x="40"
     inkscape:window-y="0"
     inkscape:window-maximized="1" />
  <metadata
     id="metadata7">
    <rdf:RDF>
      <cc:Work
         rdf:about="">
        <dc:format>image/svg+xml</dc:format>
        <dc:type
           rdf:resource="http://purl.org/dc/dcmitype/StillImage" />
        <dc:title></dc:title>
      </cc:Work>
    </rdf:RDF>
  </metadata>
  <g
     inkscape:label="C"
     inkscape:groupmode="layer"
     id="layer1"
     style="display:inline">
    <path
       style="font-style:normal;font-variant:normal;font-weight:normal;font-stretch:normal;font-size:medium;line-height:125%;font-family:Monoton;-inkscape-font-specification:'Monoton, Normal';text-align:start;letter-spacing:0px;word-spacing:0px;writing-mode:lr-tb;text-anchor:start;fill:#c91740;fill-opacity:1;stroke:none;stroke-width:1px;stroke-linecap:butt;stroke-linejoin:miter;stroke-opacity:1"
       d="m 21.599609,8.0410156 c -2.382812,0 -4.661458,0.46875 -6.835937,1.40625 -2.161459,0.9244784 -4.029948,2.1744794 -5.6054689,3.7500004 -1.5625,1.5625 -2.8125,3.430989 -3.75,5.605468 -0.9244792,2.161459 -1.3867187,4.433595 -1.3867187,6.816407 0,2.382813 0.4622395,4.661456 1.3867187,6.835937 0.9375,2.161458 2.1875,4.029948 3.75,5.605469 1.5755209,1.5625 3.4440099,2.80599 5.6054689,3.730469 2.174479,0.9375 4.453125,1.40625 6.835937,1.40625 2.955729,0 5.709636,-0.572266 8.261719,-1.939454 2.641369,-1.201637 7.350871,-4.957715 7.746094,-8.968898 l -1.199219,-0.186182 c -0.3125,2.341889 -4.700706,6.721393 -7.191406,7.774221 -2.468566,1.043472 -4.895833,1.914063 -7.617188,1.914063 -2.1875,0 -4.283854,-0.423178 -6.289062,-1.269532 C 13.31836,39.662109 11.59961,38.509766 10.154297,37.064453 8.7089843,35.61914 7.5566406,33.90039 6.6972656,31.908203 5.8509114,29.902994 5.4277344,27.806641 5.4277344,25.619141 c 0,-2.1875 0.423177,-4.277345 1.2695312,-6.269532 0.859375,-2.005208 2.0117187,-3.730468 3.4570314,-5.175781 1.445313,-1.445313 3.164063,-2.591146 5.15625,-3.4375 2.005208,-0.859375 4.101562,-1.2890624 6.289062,-1.2890624 2.721355,0 5.253907,0.6315104 7.597657,1.8945314 2.316095,1.241223 4.208087,2.925384 5.68164,5.046875 l 1.15625,-0.785156 c -1.601272,-2.305821 -3.651088,-4.138412 -6.154297,-5.492188 -2.552083,-1.3802084 -5.3125,-2.0703124 -8.28125,-2.0703124 z m 0,2.8125004 c -2.669271,0 -5.136718,0.664062 -7.402343,1.992187 -2.265625,1.315104 -4.0625,3.105469 -5.3906254,5.371094 -1.3151042,2.265625 -1.9726562,4.733073 -1.9726562,7.402344 0,2.669271 0.657552,5.136718 1.9726562,7.402343 1.3281254,2.265625 3.1250004,4.0625 5.3906254,5.390625 2.265625,1.315104 4.733072,1.972657 7.402343,1.972657 2.486979,0 4.798177,-0.572917 6.933594,-1.71875 2.148437,-1.158854 6.333889,-5.909506 6.527344,-8.123047 l -1.355469,-0.125 c -0.264138,1.852678 -3.633557,6.102399 -5.796875,6.978515 -2.04677,0.828915 -4.042969,1.582032 -6.308594,1.582032 -1.809895,0 -3.541666,-0.351563 -5.195312,-1.054688 C 14.750651,37.220703 13.32487,36.276692 12.126953,35.091797 10.942057,33.89388 9.9980467,32.468099 9.2949219,30.814453 8.5917969,29.160807 8.2402344,27.429037 8.2402344,25.619141 c 0,-1.809895 0.3515625,-3.541667 1.0546875,-5.195313 0.7031248,-1.653646 1.6471351,-3.072916 2.8320311,-4.257812 1.197917,-1.197917 2.623698,-2.148438 4.277344,-2.851563 1.653646,-0.703125 3.385417,-1.054687 5.195312,-1.054687 2.252605,0 4.348959,0.527343 6.289063,1.582031 1.903007,1.014937 3.45328,2.395069 4.664062,4.126953 l 1.160157,-0.787109 c -1.338557,-1.9169 -3.049892,-3.442584 -5.140625,-4.570313 -2.148438,-1.171875 -4.472657,-1.757812 -6.972657,-1.757812 z m 0,2.8125 c -2.161458,0 -4.160156,0.533853 -5.996093,1.601562 -1.835938,1.067708 -3.287761,2.519531 -4.355469,4.355469 -1.067708,1.835937 -1.6015626,3.834636 -1.6015626,5.996094 0,2.161459 0.5338546,4.160156 1.6015626,5.996093 1.067708,1.835937 2.519531,3.28776 4.355469,4.355469 1.835937,1.067708 3.834635,1.601563 5.996093,1.601563 2.018229,0 3.893229,-0.46875 5.625,-1.40625 1.744792,-0.9375 4.820175,-3.982565 4.986329,-5.853516 l -1.326172,-0.117188 c -0.244167,1.6868 -2.678943,3.998978 -4.304688,4.720704 -1.597551,0.70921 -3.196614,1.25 -4.980469,1.25 -1.914062,0 -3.678385,-0.46875 -5.292968,-1.40625 -1.614583,-0.950521 -2.897136,-2.233074 -3.847657,-3.847657 -0.9375,-1.614583 -1.40625,-3.378905 -1.40625,-5.292968 0,-1.914062 0.46875,-3.678386 1.40625,-5.292969 0.950521,-1.614583 2.233074,-2.890625 3.847657,-3.828125 1.614583,-0.950521 3.378906,-1.425781 5.292968,-1.425781 1.783855,0 3.437501,0.416667 4.960938,1.25 1.493767,0.79752 2.711816,1.877167 3.664062,3.228515 l 1.15625,-0.783203 c -1.080421,-1.548966 -2.461846,-2.784887 -4.15625,-3.695312 -1.731771,-0.9375 -3.606771,-1.40625 -5.625,-1.40625 z m 0,2.8125 c -1.236979,0 -2.421874,0.240885 -3.554687,0.722656 -1.119792,0.481771 -2.089844,1.132812 -2.910156,1.953125 -0.820313,0.820312 -1.471354,1.796874 -1.953125,2.929687 -0.481771,1.119792 -0.722657,2.298178 -0.722657,3.535157 0,1.236979 0.240886,2.421874 0.722657,3.554687 0.481771,1.119791 1.132812,2.089843 1.953125,2.910156 0.820312,0.820313 1.790364,1.471354 2.910156,1.953125 1.132813,0.481771 2.317708,0.722657 3.554687,0.722657 1.536459,0 2.96875,-0.358074 4.296875,-1.074219 1.328125,-0.716146 2.408855,-1.686197 3.242188,-2.910156 l -1.087891,-0.886719 c -0.63058,1.058408 -1.666015,1.934896 -2.798828,2.546875 -1.119791,0.611979 -2.337239,0.917969 -3.652344,0.917969 -2.135417,0 -3.958333,-0.755208 -5.46875,-2.265625 -1.510417,-1.510417 -2.265625,-3.333333 -2.265625,-5.46875 0,-2.135417 0.755208,-3.958333 2.265625,-5.46875 1.510417,-1.510417 3.333333,-2.265625 5.46875,-2.265625 1.315105,0 2.532553,0.305989 3.652344,0.917968 1.08118,0.571659 1.960622,1.351242 2.650391,2.326172 l 1.142578,-0.77539 c -0.81815,-1.163657 -1.856883,-2.095355 -3.128906,-2.78125 -1.328125,-0.729167 -2.766928,-1.09375 -4.316407,-1.09375 z"
       id="path4200"
       inkscape:connector-curvature="0"
       sodipodi:nodetypes="scscscccscccsscscscscscccsssccsccscccssscssssssccccsssssssscccssccsccsccccsscscscscsscccsssssccccs"
       inkscape:export-filename="/Users/hlt/Projects/University/comp-soc/main-site-2017/img/min-logo.png"
       inkscape:export-xdpi="918.15222"
       inkscape:export-ydpi="918.15222" />
  </g>
  <g
     inkscape:groupmode="layer"
     id="layer2"
     inkscape:label="S"
     style="display:inline">
    <path
       style="font-style:normal;font-variant:normal;font-weight:normal;font-stretch:normal;font-size:medium;line-height:125%;font-family:Monoton;-inkscape-font-specification:'Monoton, Normal';text-align:start;letter-spacing:0px;word-spacing:0px;writing-mode:lr-tb;text-anchor:start;fill:#000000;fill-opacity:1;stroke:none;stroke-width:1px;stroke-linecap:butt;stroke-linejoin:miter;stroke-opacity:1"
       d="M 40.537109 20.916016 C 38.935547 20.916016 37.444661 21.111328 36.064453 21.501953 C 34.697266 21.879557 33.51237 22.413412 32.509766 23.103516 C 31.520182 23.780599 30.667317 24.587891 29.951172 25.525391 C 29.248047 26.462891 28.720703 27.491536 28.369141 28.611328 C 28.017579 29.731119 27.841797 30.916016 27.841797 32.166016 C 27.841797 33.728516 28.089192 35.186849 28.583984 36.541016 C 29.078776 37.895182 29.788412 39.086588 30.712891 40.115234 C 31.650391 41.14388 32.841797 41.951172 34.287109 42.537109 C 35.745443 43.123047 37.373047 43.416016 39.169922 43.416016 L 41.279297 43.416016 C 41.852214 43.416016 42.242839 43.546224 42.451172 43.806641 C 42.672526 44.054037 42.783203 44.392578 42.783203 44.822266 C 42.783203 45.264974 42.587891 45.610027 42.197266 45.857422 C 41.819662 46.104818 41.070963 46.228516 39.951172 46.228516 C 38.384998 46.228516 37.166918 46.124058 36.244141 45.931641 L 34.857422 46.873047 C 36.132597 47.378352 37.825399 47.634766 39.951172 47.634766 C 42.750651 47.634766 44.150391 46.697266 44.150391 44.822266 C 44.150391 43.988932 43.929036 43.311849 43.486328 42.791016 C 43.043619 42.270182 42.320963 42.009766 41.318359 42.009766 L 39.169922 42.009766 C 37.086589 42.009766 35.283204 41.567057 33.759766 40.681641 C 32.236328 39.783203 31.103516 38.598307 30.361328 37.126953 C 29.619141 35.655598 29.248047 34.001953 29.248047 32.166016 C 29.248047 30.798828 29.495442 29.522787 29.990234 28.337891 C 30.498046 27.152995 31.214192 26.111328 32.138672 25.212891 C 33.076172 24.314453 34.261068 23.611328 35.693359 23.103516 C 37.138672 22.582682 38.753255 22.322266 40.537109 22.322266 C 42.815755 22.322266 44.951172 22.654297 46.943359 23.318359 C 48.885528 23.953055 50.507325 24.851405 51.818359 26.005859 L 52.998047 25.203125 C 51.549019 23.860784 49.747821 22.814049 47.587891 22.068359 C 45.400391 21.30013 43.05013 20.916016 40.537109 20.916016 z M 40.537109 23.728516 C 37.412109 23.728516 34.983724 24.529297 33.251953 26.130859 C 31.520182 27.719401 30.654297 29.73112 30.654297 32.166016 C 30.654297 34.600912 31.402995 36.61914 32.900391 38.220703 C 34.410807 39.809244 36.500651 40.603516 39.169922 40.603516 L 41.298828 40.603516 C 42.822265 40.603516 43.922526 40.994141 44.599609 41.775391 C 45.276693 42.54362 45.615234 43.559245 45.615234 44.822266 C 45.615234 46.085286 45.159505 47.107422 44.248047 47.888672 C 43.349609 48.656901 41.917317 49.041016 39.951172 49.041016 C 37.272404 49.041016 35.143556 48.612117 33.5625 47.753906 L 32.339844 48.583984 C 33.171005 49.123263 34.158331 49.56051 35.322266 49.880859 C 36.754558 50.258463 38.297526 50.447266 39.951172 50.447266 C 42.307943 50.447266 44.072266 49.926432 45.244141 48.884766 C 46.429037 47.843099 47.021484 46.488932 47.021484 44.822266 C 47.021484 43.181641 46.546224 41.833985 45.595703 40.779297 C 44.645182 39.72461 43.219401 39.197266 41.318359 39.197266 L 39.169922 39.197266 C 36.878255 39.197266 35.120443 38.539713 33.896484 37.224609 C 32.672526 35.896484 32.060547 34.210286 32.060547 32.166016 C 32.060547 30.108724 32.783204 28.422527 34.228516 27.107422 C 35.686849 25.792318 37.789713 25.134766 40.537109 25.134766 C 42.399089 25.134766 44.13737 25.375651 45.751953 25.857422 C 47.199656 26.289398 48.415795 26.886788 49.423828 27.632812 L 50.623047 26.818359 C 49.465513 25.87226 48.05046 25.123816 46.357422 24.587891 C 44.560547 24.014974 42.620443 23.728516 40.537109 23.728516 z M 40.537109 26.541016 C 38.180339 26.541016 36.409505 27.061849 35.224609 28.103516 C 34.052735 29.145182 33.466797 30.499349 33.466797 32.166016 C 33.466797 33.832682 33.942057 35.186849 34.892578 36.228516 C 35.843099 37.270182 37.26888 37.791016 39.169922 37.791016 L 41.376953 37.791016 C 43.642578 37.791016 45.380859 38.455078 46.591797 39.783203 C 47.815755 41.111328 48.427734 42.791016 48.427734 44.822266 C 48.427734 46.879558 47.698568 48.565755 46.240234 49.880859 C 44.794922 51.195963 42.698567 51.853516 39.951172 51.853516 C 38.089193 51.853516 36.344401 51.61263 34.716797 51.130859 C 33.30613 50.709935 32.116253 50.131221 31.123047 49.412109 L 29.921875 50.228516 C 31.065932 51.145944 32.454311 51.875867 34.111328 52.400391 C 35.921224 52.973307 37.867839 53.259766 39.951172 53.259766 C 43.076172 53.259766 45.504557 52.465494 47.236328 50.876953 C 48.968099 49.27539 49.833984 47.257162 49.833984 44.822266 C 49.833984 42.426432 49.085287 40.421224 47.587891 38.806641 C 46.103516 37.192057 44.039714 36.384766 41.396484 36.384766 L 39.169922 36.384766 C 37.646484 36.384766 36.546224 36.000651 35.869141 35.232422 C 35.205079 34.464193 34.873047 33.442058 34.873047 32.166016 C 34.873047 30.902995 35.322266 29.88737 36.220703 29.119141 C 37.132161 28.337891 38.570963 27.947266 40.537109 27.947266 C 43.254053 27.947266 45.403785 28.394748 46.992188 29.285156 L 48.210938 28.458984 C 47.363604 27.895988 46.349044 27.4469 45.146484 27.126953 C 43.727214 26.736328 42.190755 26.541016 40.537109 26.541016 z M 40.537109 29.353516 C 37.73763 29.353516 36.337891 30.291016 36.337891 32.166016 C 36.337891 33.01237 36.559244 33.695964 37.001953 34.216797 C 37.444661 34.72461 38.167317 34.978516 39.169922 34.978516 L 41.533203 34.978516 C 43.564453 34.978516 45.322266 35.434244 46.806641 36.345703 C 48.304037 37.257161 49.417318 38.448568 50.146484 39.919922 C 50.875651 41.378255 51.240234 43.01237 51.240234 44.822266 C 51.240234 46.189453 50.986328 47.465495 50.478516 48.650391 C 49.983724 49.835287 49.267578 50.876953 48.330078 51.775391 C 47.405599 52.673828 46.220703 53.383464 44.775391 53.904297 C 43.343099 54.41211 41.735026 54.666016 39.951172 54.666016 C 37.672526 54.666016 35.530599 54.340494 33.525391 53.689453 C 31.617891 53.05362 30.023305 52.166279 28.724609 51.041016 L 27.542969 51.845703 C 28.980174 53.1576 30.755007 54.185997 32.880859 54.919922 C 35.08138 55.688151 37.438151 56.072266 39.951172 56.072266 C 41.552734 56.072266 43.037109 55.876953 44.404297 55.486328 C 45.784505 55.108723 46.969401 54.58138 47.958984 53.904297 C 48.961588 53.214193 49.814453 52.400391 50.517578 51.462891 C 51.233724 50.525391 51.767579 49.496744 52.119141 48.376953 C 52.470703 47.257161 52.646484 46.072266 52.646484 44.822266 C 52.646484 43.285808 52.405599 41.847005 51.923828 40.505859 C 51.442057 39.151693 50.745443 37.960287 49.833984 36.931641 C 48.922526 35.889974 47.757162 35.069661 46.337891 34.470703 C 44.931641 33.871744 43.349609 33.572266 41.591797 33.572266 L 39.169922 33.572266 C 38.610026 33.572266 38.225911 33.448568 38.017578 33.201172 C 37.809245 32.953777 37.705078 32.608724 37.705078 32.166016 C 37.705078 31.723308 37.89388 31.378255 38.271484 31.130859 C 38.66211 30.883463 39.417318 30.759766 40.537109 30.759766 C 42.162011 30.759766 43.422512 30.870599 44.353516 31.080078 L 45.712891 30.15625 C 44.429007 29.623996 42.708083 29.353516 40.537109 29.353516 z "
       id="path4197"
       inkscape:export-filename="/Users/hlt/Projects/University/comp-soc/main-site-2017/img/min-logo.png"
       inkscape:export-xdpi="918.15222"
       inkscape:export-ydpi="918.15222" />
  </g>
  <g
     inkscape:groupmode="layer"
     id="layer3"
     inkscape:label="guide"
     style="display:inline" />
</svg>
